<svg width="45" height="67" viewBox="0 0 45 67" fill="none" xmlns="http://www.w3.org/2000/svg">
<path d="M17.9696 21.2033C18.071 21.0512 22.001 23.0288 26.438 20.4427C30.875 17.8565 28.2889 45.0872 28.2889 45.0872L27.9339 59.2096L27.4268 66.0299H16.3977L14.1411 44.5547C14.1411 44.5547 16.423 23.6373 17.9696 21.2033Z" fill="#5DCEC1"/>
<path d="M37.9007 25.2093C36.1005 23.6627 27.8096 20.5187 27.8096 20.5187L26.4658 22.9274C26.4658 22.9274 26.8968 52.9217 26.6687 59.1081V66.0299H36.7851L36.8358 50.4116C39.7515 49.6763 42.0081 48.4339 43.2504 47.0902C44.6449 45.5435 44.9999 44.6815 44.9999 42.6531C44.9999 40.6248 39.7008 26.7559 37.9007 25.2093Z" fill="white"/>
<path d="M17.0591 47.5973C17.1605 47.4452 17.2112 47.3691 17.2112 47.3691V20.7977C17.2112 20.7977 8.9203 23.9416 7.12013 25.4882C5.31997 27.0349 0.0716056 41.3601 0.0208968 43.4138C-0.181939 51.5272 6.86659 61.745 6.86659 61.745C6.86659 61.745 7.09478 61.6436 7.5258 61.3394C7.39903 63.2156 7.14549 66.0553 7.14549 66.0553H18.1493C18.1493 66.0553 18.1747 57.663 18.1493 57.2827C18.124 57.0291 17.5408 51.8061 17.0591 47.5973Z" fill="white"/>
<path d="M34.7081 40.3713L32.8573 41.4615C32.8066 41.4869 32.7559 41.4869 32.7305 41.4615L30.7782 40.3713C30.7275 40.3459 30.7021 40.2952 30.7021 40.2445V36.1371C30.7021 36.061 30.7529 36.0103 30.8289 36.0103H34.6321C34.7081 36.0103 34.7588 36.061 34.7588 36.1371V40.2445C34.7842 40.2952 34.7588 40.3459 34.7081 40.3713Z" fill="#D5E1ED"/>
<path d="M34.7081 40.3712L32.8573 41.4615C32.8066 41.4868 32.7559 41.4868 32.7305 41.4615L30.7782 40.3712C30.7275 40.3459 30.7021 40.2952 30.7021 40.2445V36.9738C30.7021 36.8977 30.7529 36.847 30.8289 36.847H34.6321C34.7081 36.847 34.7588 36.8977 34.7588 36.9738V40.2445C34.7842 40.2952 34.7588 40.3459 34.7081 40.3712Z" fill="#B8DDFF"/>
<g opacity="0.5">
<g opacity="0.5">
<path opacity="0.5" d="M26.6685 59.387V46.4056V18.2115C26.6685 18.2115 27.0234 18.8453 28.2911 20.1384C29.8885 21.7611 31.2576 24.1951 31.2576 24.1951L28.3926 23.6373L32.1197 27.3898L29.3053 43.9208L27.3277 44.2251L28.5954 48.2311L26.6685 59.387Z" fill="#8FA7D7"/>
</g>
</g>
<g opacity="0.5">
<path opacity="0.5" d="M15.9433 20.1131C14.3459 21.7358 12.9768 24.1698 12.9768 24.1698L15.8418 23.612L12.1147 27.3644L18.1491 58.525L17.5659 18.1861C17.5659 18.1861 17.211 18.82 15.9433 20.1131Z" fill="#8FA7D7"/>
</g>
<path d="M26.6685 57.6629L26.0347 17.9072C26.0347 17.9072 26.6939 18.1861 27.9616 19.4792C29.5589 21.1019 30.6238 23.8908 30.6238 23.8908L27.7588 23.3331L31.4859 27.0855L28.7983 44.0983L27.4292 44.4025L28.4433 46.4309L26.6685 57.6629Z" fill="white"/>
<path d="M18.1514 57.2573V17.8819C18.1514 17.8819 17.4922 18.1608 16.2245 19.4539C14.6271 21.0765 13.5622 23.8655 13.5622 23.8655L16.4273 23.3077L12.7002 27.0602L18.1514 57.2573Z" fill="white"/>
<path d="M22.6396 60.4773C20.1295 60.4773 18.2026 60.097 18.1772 60.097V59.8688C18.228 59.8688 22.5889 60.7309 26.671 59.8688V60.097C25.2765 60.3759 23.9073 60.4773 22.6396 60.4773Z" fill="#38A595"/>
<path d="M22.0823 24.829C19.8257 24.829 18.1777 24.043 18.1523 24.0177V23.7641C18.2031 23.7895 22.209 25.6911 26.1136 23.5866V23.8655C24.6938 24.6262 23.3246 24.829 22.0823 24.829Z" fill="#38A595"/>
<path opacity="0.5" d="M3.67529 43.4138C3.67529 43.4138 6.66711 43.997 8.21373 45.5436C8.23908 45.5436 4.35986 43.5913 3.67529 43.4138Z" fill="#8FA7D7"/>
<path d="M11.6117 56.7502L12.2455 57.5108C12.2455 57.5108 10.9778 60.6041 9.58333 62.2268L8.44238 60.6548C8.44238 60.6548 10.1918 59.311 11.6117 56.7502Z" fill="#FFCCA9"/>
<path opacity="0.5" d="M7.22098 43.4138C7.29704 43.5406 8.31122 44.504 8.64083 45.4168L7.06885 43.6166L7.22098 43.4138Z" fill="#8FA7D7"/>
<path opacity="0.5" d="M10.4134 33.0184C10.4134 32.8663 9.5006 44.935 9.09492 46.507L12.1121 55.7613C12.1121 55.7613 10.5148 59.387 7.52295 61.314C7.52295 61.314 9.44989 61.0351 12.4671 56.8516C12.4671 56.8516 10.9458 61.1618 8.81603 62.9873C8.81603 62.9873 12.1628 61.0097 13.1516 54.9754L9.98233 46.507C10.0077 46.507 10.5401 35.706 10.4134 33.0184Z" fill="#8FA7D7"/>
<path opacity="0.5" d="M36.8353 50.4116L35.3647 50.8426L35.5929 52.1357L36.8353 51.654V50.4116Z" fill="#8FA7D7"/>
<path opacity="0.5" d="M36.4805 41.3601L35.3649 32.2832L35.7199 41.639C31.9928 43.0588 27.9868 44.7322 27.9868 44.7322C27.9868 44.7322 30.1166 44.1744 32.7281 43.4899C35.3396 42.8053 40.2076 40.067 40.2076 40.067C39.2188 40.3713 37.875 40.8276 36.4805 41.3601Z" fill="#8FA7D7"/>
<path opacity="0.1" d="M41.6275 32.5113C41.6275 32.5113 43.9601 38.8246 43.9855 42.9067C43.9855 44.4279 43.1234 45.6956 42.4895 46.152C36.4045 50.589 28.8742 50.7412 28.8742 50.7412C28.8742 50.7412 28.8235 51.7554 28.6714 51.9582C28.6714 51.9582 41.9825 51.0708 44.5179 45.3153C44.5179 45.3153 45.101 44.4026 44.9743 42.9574C44.7207 40.2191 43.2248 36.3906 41.6275 32.5113Z" fill="#8FA7D7"/>
<path opacity="0.1" d="M4.56119 30.2041C4.66261 29.9506 0.758029 39.8642 0.808738 43.4138C0.884801 50.8933 6.41206 60.3252 7.52766 61.3394L6.86844 61.745C6.86844 61.745 -0.45898 50.868 0.0227534 43.4138C0.124171 41.9179 0.30165 41.284 4.56119 30.2041Z" fill="#8FA7D7"/>
<path d="M28.7249 51.8827C29.156 47.4964 27.8882 44.8088 28.0404 44.7328C29.4602 44.0989 33.0098 42.7044 35.8495 41.5888L35.9763 35.1234L21.4229 34.5403L21.0933 56.0408L35.596 55.4577L35.6721 50.7671C32.0971 51.6038 28.7249 51.8827 28.7249 51.8827Z" fill="#AE376D"/>
<path d="M31.0818 34.9454V34.6665L27.1265 34.4383V34.7679L31.0818 34.9454Z" fill="#A1B5BF"/>
<path d="M27.6311 35.1989C27.6311 35.2496 27.6058 35.275 27.5551 35.275C27.5044 35.275 27.479 35.2496 27.479 35.1989C27.479 35.1482 27.5044 35.1228 27.5551 35.1228C27.6058 35.1228 27.6311 35.1735 27.6311 35.1989Z" fill="#A1B5BF"/>
<path d="M30.7539 35.3514C30.7539 35.3769 30.7284 35.4024 30.7029 35.4024C30.6774 35.4024 30.6519 35.3769 30.6519 35.3514C30.6519 35.3259 30.6774 35.3004 30.7029 35.3004C30.7539 35.3004 30.7539 35.3259 30.7539 35.3514Z" fill="#A1B5BF"/>
<path d="M28.4447 12.7096C28.039 14.2055 27.3037 15.3464 26.9741 15.2704C26.9741 15.2704 27.2023 14.3069 27.5066 12.7856C27.8615 11.0108 27.9122 9.76845 28.6222 9.84451C28.9518 9.86987 28.8757 11.2136 28.4447 12.7096Z" fill="#F0BA92"/>
<g opacity="0.6">
<g opacity="0.6">
<path opacity="0.6" d="M27.9093 12.1011C27.529 13.597 27.3262 15.3464 26.9966 15.2704C26.9966 15.2704 27.3008 13.9012 27.6051 12.38C27.96 10.6052 27.9093 9.99665 28.6446 10.0727C28.6446 10.0727 28.3657 10.2755 27.9093 12.1011Z" fill="#D88D64"/>
</g>
</g>
<path d="M15.7896 12.7096C16.1953 14.2055 16.8798 15.3464 17.2094 15.2704C17.2094 15.2704 16.8798 14.028 16.677 12.7349C16.3981 10.9601 16.3474 9.76846 15.6121 9.84452C15.2825 9.86988 15.3586 11.2137 15.7896 12.7096Z" fill="#F0BA92"/>
<g opacity="0.6">
<g opacity="0.6">
<path opacity="0.6" d="M16.1193 11.9235C16.4996 13.4195 16.88 15.3464 17.2096 15.2703C17.2096 15.2703 16.88 13.7237 16.5757 12.2024C16.2207 10.4276 16.2968 10.022 15.5615 10.098C15.5615 10.098 15.6629 10.098 16.1193 11.9235Z" fill="#D88D64"/>
</g>
</g>
<path d="M26.0785 21.4061C26.0785 21.4061 25.5207 22.8513 22.0725 22.8513C18.6243 22.8513 18.1426 21.5075 18.1426 21.5075V17.1212H26.0278L26.0785 21.4061Z" fill="#F0BA92"/>
<g opacity="0.6">
<g opacity="0.6">
<path opacity="0.6" d="M26.0278 18.2115C25.3179 19.7074 22.5289 20.8737 22.0725 20.8737C21.6161 20.8737 19.2582 19.9863 18.1426 18.2368V15.9549H26.0278V18.2115Z" fill="#D88D64"/>
</g>
</g>
<path d="M26.9944 15.2704C25.6759 19.5806 22.101 19.6567 22.101 19.6567C22.101 19.6567 18.3232 19.6567 17.1822 15.1689C16.4469 12.2025 14.6468 7.68939 16.8019 4.34261C18.0189 2.44103 26.8929 1.6804 27.9325 4.34261C28.9467 6.97947 27.755 12.7349 26.9944 15.2704Z" fill="#FFCCA9"/>
<path d="M24.0312 15.0932C24.1833 15.22 23.7269 16.7666 22.1042 16.7919C20.7351 16.8173 20.0505 15.3975 20.1519 15.1693C20.3041 14.9157 20.8619 15.0932 22.0282 15.0932C23.2198 15.1186 23.8537 14.9664 24.0312 15.0932Z" fill="white"/>
<path d="M22.0795 16.893C21.1921 16.893 20.5583 16.3099 20.254 15.7774C20.1272 15.5746 20.0258 15.2957 20.1019 15.1689C20.2287 14.9661 20.5329 14.9661 21.0654 15.0168C21.3189 15.0422 21.6739 15.0422 22.0542 15.0422C22.5359 15.0422 22.9162 15.0168 23.2458 14.9915C23.7276 14.9661 23.9811 14.9408 24.1079 15.0422C24.2093 15.1436 24.1332 15.4225 24.0825 15.5239C23.9811 15.7521 23.4994 16.8677 22.0795 16.893ZM20.5836 15.1182C20.3808 15.1182 20.2794 15.1436 20.2287 15.2196C20.2033 15.245 20.254 15.4732 20.4315 15.7521C20.5836 15.9803 21.1161 16.6902 22.0795 16.6902H22.1049C23.043 16.6902 23.5247 16.1324 23.7276 15.8028C23.9304 15.4732 23.9811 15.1943 23.9557 15.1182C23.8797 15.0675 23.5754 15.0929 23.2205 15.0929C22.9162 15.1182 22.5105 15.1436 22.0288 15.1436C21.6231 15.1436 21.2935 15.1182 21.0146 15.1182C20.8625 15.1436 20.7104 15.1182 20.5836 15.1182Z" fill="#D3976E"/>
<path d="M22.1054 13.7744C21.9026 13.6477 21.6237 13.3434 21.8012 12.8363C21.9533 12.4053 21.9787 11.5686 21.9787 11.5432H22.1308C22.1308 11.5686 22.1054 12.4053 21.9533 12.887C21.8265 13.2673 22.0294 13.5209 22.2069 13.6477L22.1054 13.7744Z" fill="#D88D64"/>
<path d="M28.3139 45.9492L26.818 46.1774C24.9165 46.3549 24.2319 44.8843 22.5331 45.0872C20.8597 45.3153 21.0626 45.9746 21.0626 45.9746C19.947 45.9999 20.2512 47.5465 20.2512 47.5465C19.7188 48.3325 20.2766 49.2199 20.2766 49.2199C19.8963 49.7524 20.4034 50.5891 20.4034 50.5891C20.5555 51.4765 21.6204 52.2118 22.7867 52.3385C22.8374 52.3385 22.8627 52.3385 22.9135 52.3385C22.9642 52.3385 22.9895 52.3385 23.0402 52.3385C23.0909 52.3385 23.1163 52.3385 23.167 52.3385C23.2177 52.3385 23.2938 52.3385 23.3445 52.3385C23.3952 52.3385 23.4459 52.3385 23.4966 52.3132C24.8911 52.1103 28.7703 50.5637 28.7703 50.5637C28.8464 47.5465 28.3139 45.9492 28.3139 45.9492Z" fill="#FFCCA9"/>
<path d="M21.0878 45.9746C21.0878 45.9746 22.0513 46.152 22.5584 46.2028C23.0908 46.2281 24.2825 46.4309 24.5614 46.507C24.5614 46.507 22.9894 46.3802 22.533 46.3549C22.2034 46.3295 20.9357 45.9746 21.0878 45.9746Z" fill="#D88D64"/>
<path d="M21.3879 47.9776C21.3879 47.9776 20.678 47.6987 20.4751 47.4198C20.2723 47.1409 20.2723 46.8113 20.2469 46.8366C20.1962 47.1155 20.2723 47.5719 20.2723 47.5719L21.3879 47.9776Z" fill="#D88D64"/>
<path d="M21.4195 49.6509C21.4195 49.6509 20.7603 49.3467 20.4814 49.1439C20.1771 48.8903 20.0757 48.51 20.0757 48.5354C20.101 48.9157 20.3039 49.2199 20.3039 49.2199L21.4195 49.6509Z" fill="#D88D64"/>
<path d="M21.5423 50.9947C21.5423 50.9947 20.8831 50.6905 20.6042 50.4876C20.2999 50.2341 20.1478 49.8284 20.1731 49.8538C20.1985 50.2341 20.452 50.589 20.452 50.589L21.5423 50.9947Z" fill="#D88D64"/>
<path d="M21.2166 45.5689C21.2166 45.5689 21.0391 45.9492 21.3433 46.0253L21.3941 46.1013L21.0645 45.9746C21.0898 45.9746 21.0645 45.7464 21.2166 45.5689Z" fill="#D88D64"/>
<g opacity="0.1">
<g opacity="0.1">
<g opacity="0.1">
<path opacity="0.1" d="M15.8994 27.7194L15.9754 23.4091L15.6205 23.4852L15.5444 27.7447C13.5921 28.0743 13.2118 31.5479 13.1357 35.9595V36.2131C13.1357 37.1259 13.6175 37.3287 14.226 37.4301C14.4542 37.4555 14.6824 37.4808 14.9106 37.4808C14.9613 37.6076 15.088 37.709 15.2402 37.709C15.443 37.709 15.6205 37.5569 15.6205 37.3287V37.0244C15.6205 36.8216 15.4683 36.6441 15.2402 36.6441C15.0627 36.6441 14.9105 36.7709 14.8852 36.9737C14.4035 36.9484 13.795 36.8469 13.5921 36.492C13.3893 36.137 13.5161 35.4017 13.5414 34.8947C13.6682 31.0408 14.0992 28.0997 15.874 28.0997C17.6742 28.0997 18.5109 31.0154 18.6376 34.8693C18.663 35.351 18.7391 36.061 18.5616 36.4159C18.4095 36.7455 17.9531 36.8977 17.5221 36.9484C17.4713 36.7709 17.3192 36.6695 17.1164 36.6695C16.9135 36.6948 16.7614 36.8723 16.7868 37.0751L16.8121 37.3794C16.8375 37.5822 17.015 37.7344 17.2178 37.709C17.3699 37.6836 17.4967 37.5822 17.5221 37.4301C18.232 37.3287 19.018 37.0244 18.9926 36.1117V35.7567C18.9926 35.7567 18.9926 35.7567 18.9926 35.7314C18.9419 31.2183 18.0545 27.7701 15.8994 27.7194Z" fill="#0E3368"/>
</g>
</g>
<g opacity="0.1">
<g opacity="0.1">
<path opacity="0.1" d="M33.3686 31.1929C33.0136 22.6739 29.0583 20.7216 28.8809 20.6455C28.8809 20.6455 29.109 20.823 30.0979 22.1921C31.1374 23.612 32.7347 26.1981 32.9629 31.1929C32.1009 31.3197 31.4417 32.055 31.4417 32.9424C31.4417 33.9059 32.2276 34.6918 33.1911 34.6918C34.1546 34.6918 34.9406 33.9059 34.9406 32.9424C34.9659 32.0296 34.256 31.269 33.3686 31.1929Z" fill="#0E3368"/>
</g>
</g>
<path opacity="0.1" d="M35.6549 50.7665L35.5789 55.4825L22.4453 55.9896L22.4199 57.6376L36.4916 57.0544V50.5384L35.6549 50.7665Z" fill="#0E3368"/>
</g>
<path d="M18.5077 35.3003C18.4316 30.7619 17.7471 27.3137 15.5666 27.3137C13.3608 27.3137 12.7016 30.8633 12.6255 35.5285V35.782C12.6255 36.6948 13.1072 36.8976 13.7157 36.999C13.9439 37.0244 14.1721 37.0498 14.4003 37.0498C14.451 37.1765 14.5778 37.2779 14.7299 37.2779C14.9327 37.2779 15.1102 37.1258 15.1102 36.8976V36.5934C15.1102 36.3905 14.9581 36.2131 14.7299 36.2131C14.5524 36.2131 14.4003 36.3398 14.3749 36.5427C13.8932 36.5173 13.2847 36.4159 13.0819 36.0609C12.879 35.706 13.0058 34.9707 13.0312 34.4636C13.1579 30.6097 13.7918 27.694 15.592 27.694C17.3921 27.694 18.0006 30.5844 18.1274 34.4383C18.1527 34.92 18.2288 35.6299 18.0513 35.9849C17.8992 36.3145 17.4428 36.4666 17.0118 36.5173C16.9611 36.3398 16.809 36.2384 16.6061 36.2384C16.4033 36.2638 16.2512 36.4413 16.2765 36.6441L16.3019 36.9483C16.3272 37.1512 16.5047 37.3033 16.7075 37.2779C16.8597 37.2526 16.9864 37.1512 17.0118 36.999C17.7217 36.8976 18.5077 36.5934 18.4824 35.6806V35.3003C18.5077 35.3003 18.5077 35.3003 18.5077 35.3003Z" fill="#383F47"/>
<path d="M15.6172 27.4911H15.2622V23.5612L15.6172 23.4851V27.4911Z" fill="#383F47"/>
<path d="M32.0489 30.204C31.8714 25.1078 30.2233 22.4709 29.1838 21.0257C28.195 19.6566 27.9668 19.4791 27.9668 19.4791C28.1443 19.5552 32.1503 21.5075 32.4545 30.204H32.0489Z" fill="#383F47"/>
<path d="M32.277 30.2801C31.9981 24.9811 30.7304 22.6485 29.6909 21.2033C28.7021 19.8341 27.9668 19.4538 27.9668 19.4538C28.1443 19.5299 32.1503 21.6596 32.4799 30.3309L32.277 30.2801Z" fill="#1A2026"/>
<path d="M34.0546 31.7508C34.0546 32.7143 33.2686 33.5003 32.3051 33.5003C31.3416 33.5003 30.5557 32.7143 30.5557 31.7508C30.5557 30.7874 31.3416 30.0014 32.3051 30.0014C33.2686 30.0014 34.0546 30.7874 34.0546 31.7508Z" fill="#BCBCBC"/>
<path d="M32.2777 33.5762C31.2889 33.5762 30.4775 32.7649 30.4775 31.776C30.4775 30.7872 31.2889 29.9759 32.2777 29.9759C33.2665 29.9759 34.0779 30.7872 34.0779 31.776C34.1032 32.7649 33.2919 33.5762 32.2777 33.5762ZM32.2777 30.0519C31.3396 30.0519 30.579 30.8126 30.579 31.7507C30.579 32.6888 31.3396 33.4494 32.2777 33.4494C33.2158 33.4494 33.9765 32.6888 33.9765 31.7507C34.0018 30.8126 33.2158 30.0519 32.2777 30.0519Z" fill="#444444"/>
<g opacity="0.3">
<g opacity="0.3">
<path opacity="0.3" d="M33.1595 33.3481L32.7031 32.41L33.0074 31.5479L33.9709 31.1422C33.9962 31.1422 34.554 32.3846 33.1595 33.3481Z" fill="white"/>
</g>
</g>
<path d="M33.0612 31.8775C33.0612 32.3338 32.7063 32.7142 32.2752 32.7142C31.8442 32.7142 31.4893 32.3338 31.4893 31.8775C31.4893 31.4211 31.8442 31.0408 32.2752 31.0408C32.7063 31.0408 33.0612 31.4211 33.0612 31.8775Z" fill="#635B53"/>
<g opacity="0.4">
<g opacity="0.4">
<path opacity="0.4" d="M31.998 29.9505L32.0994 31.0154L31.5163 31.7253L30.4514 31.776C30.4514 31.7507 30.35 30.3562 31.998 29.9505Z" fill="white"/>
</g>
</g>
<path d="M32.9843 31.7509C32.9843 32.1313 32.68 32.4609 32.2744 32.4609C31.8687 32.4609 31.5645 32.1566 31.5645 31.7509C31.5645 31.3453 31.8687 31.041 32.2744 31.041C32.68 31.041 32.9843 31.3706 32.9843 31.7509Z" fill="#D3D3D3"/>
<path d="M32.2738 32.5113C31.8681 32.5113 31.5132 32.1817 31.5132 31.7507C31.5132 31.345 31.8428 30.99 32.2738 30.99C32.6795 30.99 33.0344 31.3196 33.0344 31.7507C33.0344 32.1817 32.7048 32.5113 32.2738 32.5113ZM32.2738 31.1168C31.9189 31.1168 31.6146 31.421 31.6146 31.776C31.6146 32.131 31.9189 32.4352 32.2738 32.4352C32.6288 32.4352 32.933 32.131 32.933 31.776C32.933 31.3957 32.6288 31.1168 32.2738 31.1168Z" fill="#A8A6A0"/>
<path d="M32.5534 31.8521C32.5534 32.0042 32.4266 32.131 32.2745 32.131C32.1224 32.131 31.9956 32.0042 31.9956 31.8521C31.9956 31.7 32.1224 31.5732 32.2745 31.5732C32.4266 31.5732 32.5534 31.7 32.5534 31.8521Z" fill="#BABABA"/>
<path d="M32.2745 32.0296C32.4285 32.0296 32.5534 31.9048 32.5534 31.7507C32.5534 31.5967 32.4285 31.4718 32.2745 31.4718C32.1205 31.4718 31.9956 31.5967 31.9956 31.7507C31.9956 31.9048 32.1205 32.0296 32.2745 32.0296Z" fill="white"/>
<path d="M14.7038 37.0751H14.6278C14.5771 37.0751 14.5264 37.0244 14.5264 36.9737V36.492C14.5264 36.4413 14.5771 36.3905 14.6278 36.3905H14.7038C14.7546 36.3905 14.8053 36.4413 14.8053 36.492V36.9737C14.8053 37.0244 14.7546 37.0751 14.7038 37.0751Z" fill="#AAA9A2"/>
<path d="M16.7575 37.0751H16.6814C16.6307 37.0751 16.5546 37.0244 16.5546 36.9737L16.5039 36.492C16.5039 36.4413 16.5546 36.3652 16.6053 36.3652H16.6814C16.7321 36.3652 16.8082 36.4159 16.8082 36.4666L16.8589 36.9483C16.8589 37.0244 16.8082 37.0751 16.7575 37.0751Z" fill="#AAA9A2"/>
<g opacity="0.4">
<g opacity="0.4">
<path opacity="0.4" d="M32.097 31.1676C31.6914 31.2943 31.666 31.6746 31.666 31.6746L32.0717 31.7L32.1731 31.5986L32.097 31.1676Z" fill="white"/>
</g>
</g>
<g opacity="0.4">
<g opacity="0.4">
<path opacity="0.4" d="M32.6574 32.2831C32.987 32.0042 32.8856 31.6493 32.8856 31.6493L32.5053 31.7507L32.4546 31.8775L32.6574 32.2831Z" fill="white"/>
</g>
</g>
<path d="M16.3726 12.2533C16.3726 12.2533 15.612 9.26144 15.4852 7.74017C15.3585 6.21891 15.181 4.19056 16.9051 3.50599C18.6038 2.82142 18.0967 4.92583 18.0967 4.92583C18.0967 4.92583 16.753 5.83859 16.4741 8.12049C16.3219 9.3375 16.3726 12.2533 16.3726 12.2533Z" fill="#2A445D"/>
<path d="M27.7301 12.2279C27.7301 12.2279 28.5668 9.2614 28.6936 7.76549C28.8204 6.24422 28.9979 4.21587 27.2738 3.5313C25.575 2.84673 26.0821 4.95115 26.0821 4.95115C26.0821 4.95115 27.4259 5.86391 27.7048 8.1458C27.8823 9.33746 27.7301 12.2279 27.7301 12.2279Z" fill="#2A445D"/>
<path d="M26.3406 5.66105C26.3406 5.66105 24.2615 5.99065 22.867 5.33144C22.4613 5.1286 20.4837 5.99065 19.5709 5.81317C17.8215 5.48356 17.0609 4.06372 17.0355 3.91159C16.9341 3.48057 16.5284 2.87206 17.7708 1.93395C19.5202 0.615519 21.6754 0.945126 22.0303 0.564809C22.3853 0.184493 22.7402 -0.0436956 23.4502 0.00701318C25.3264 0.184494 25.4025 1.30009 26.4673 1.45221C27.8365 1.65505 28.2929 2.21285 28.3943 3.35379C28.5464 5.55963 26.3406 5.66105 26.3406 5.66105Z" fill="#2A445D"/>
<path d="M22.3862 0.26059C22.3862 0.26059 21.8031 0.691613 20.3325 2.39036C18.8619 4.11446 18.1013 3.98769 17.9238 4.03839C17.9238 4.03839 19.1915 4.26658 20.5353 2.49178C21.8791 0.716968 22.3862 0.26059 22.3862 0.26059Z" fill="#1F384C"/>
<path d="M24.6924 5.58497C24.6924 5.58497 27.1518 5.86386 28.2167 4.59615C28.2167 4.59615 27.9885 5.93993 24.7431 5.61032L24.6924 5.58497Z" fill="#1F384C"/>
<path d="M20.6613 5.63566C17.7709 6.04133 16.9342 3.65802 16.9595 3.70873C17.4159 5.15393 18.5569 5.71172 19.4189 5.93991C19.6725 6.01598 19.926 6.04133 20.1796 6.06668C20.3063 6.06668 20.4077 6.06668 20.4077 6.06668C23.1714 6.09204 25.4026 3.17628 25.4026 3.17628C23.501 4.77361 21.8276 5.40747 20.6613 5.63566Z" fill="#1F384C"/>
<path d="M20.3613 12.3039L21.3248 11.3404V12.3039H20.3613Z" fill="white"/>
<path d="M19.1214 12.3039L18.6396 11.7968V10.5798L19.5778 9.61632H20.8201L21.3272 10.1234V11.3404L20.3638 12.3039H19.1214Z" fill="white"/>
<path d="M19.5778 9.61632L18.6396 10.5798V9.61632H19.5778Z" fill="white"/>
<path d="M24.7134 12.3799L25.6768 11.4418V12.3799H24.7134Z" fill="white"/>
<path d="M23.4744 12.3799L22.9927 11.8728V10.6558L23.9308 9.69235H25.1732L25.6802 10.1994V11.4418L24.7168 12.3799H23.4744Z" fill="white"/>
<path d="M23.9308 9.69235L22.9927 10.6558V9.69235H23.9308Z" fill="white"/>
<path d="M25.5825 9.23597C25.2275 8.98242 24.8219 8.88101 24.3908 8.95707C24.2134 8.98243 24.0612 8.80495 24.1119 8.62746C24.1373 8.52605 24.188 8.47534 24.2894 8.42463C24.8979 8.24715 25.4811 8.34856 25.9374 8.80494C25.9882 8.85565 26.0135 8.95707 25.9882 9.03313V9.05849C25.9628 9.26132 25.7346 9.36274 25.5825 9.23597Z" fill="#2A445D"/>
<path d="M24.336 11.4418C24.504 11.4418 24.6402 11.2602 24.6402 11.0362C24.6402 10.8121 24.504 10.6305 24.336 10.6305C24.168 10.6305 24.0317 10.8121 24.0317 11.0362C24.0317 11.2602 24.168 11.4418 24.336 11.4418Z" fill="#210601"/>
<path d="M19.9786 10.6051C19.8011 10.6051 19.6743 10.7826 19.6743 11.0108C19.6743 11.239 19.8011 11.4164 19.9786 11.4164C20.156 11.4164 20.2828 11.239 20.2828 11.0108C20.2828 10.7826 20.1307 10.6051 19.9786 10.6051Z" fill="#210601"/>
<path d="M25.5822 10.6305C25.4047 10.098 24.923 9.71771 24.3398 9.71771C23.6806 9.71771 23.1482 10.1994 23.0468 10.8333C22.8186 10.5798 22.489 10.4023 22.1087 10.4023C21.779 10.4023 21.4748 10.529 21.2466 10.7572C21.1452 10.1487 20.6127 9.69235 19.9535 9.69235C19.3704 9.69235 18.8886 10.0727 18.7112 10.6051C16.5307 9.84448 15.9982 9.74306 15.8715 9.76842C15.8208 9.76842 15.7954 9.84448 15.7954 9.86983L15.8968 9.92054L15.9222 9.89519C16.0997 9.86983 17.4688 10.3009 18.6858 10.7572C18.6605 10.8333 18.6605 10.9347 18.6605 11.0361C18.6605 11.7461 19.2436 12.3546 19.9789 12.3546C20.4606 12.3546 20.8916 12.0757 21.1198 11.6953C21.1705 11.6953 21.1959 11.67 21.2213 11.67C21.2466 11.6446 21.2973 11.6193 21.3227 11.5939C21.3734 11.5432 21.4241 11.4418 21.4241 11.3657C21.4494 11.1629 21.3987 11.0108 21.348 10.9347C21.5509 10.7319 21.8298 10.6051 22.134 10.6051C22.4636 10.6051 22.7679 10.7572 22.9707 10.9854C22.92 11.0615 22.8946 11.2136 22.92 11.3911C22.92 11.4672 22.9707 11.5432 23.0214 11.6193C23.0468 11.6446 23.0975 11.67 23.1228 11.6953C23.1482 11.7207 23.1989 11.7207 23.2243 11.7207C23.4524 12.101 23.8581 12.3799 24.3652 12.3799C25.0751 12.3799 25.6836 11.7968 25.6836 11.0615C25.6836 10.9601 25.6836 10.884 25.6583 10.7826C26.9006 10.3516 28.2444 9.89519 28.3965 9.92054L28.5233 9.86983C28.4473 9.76841 28.3965 9.61629 25.5822 10.6305ZM19.9789 12.1771C19.345 12.1771 18.8126 11.6446 18.8126 11.0108C18.8126 10.3769 19.345 9.84448 19.9789 9.84448C20.6127 9.84448 21.1452 10.3769 21.1452 11.0108C21.1452 11.6446 20.6127 12.1771 19.9789 12.1771ZM21.272 11.3657C21.2466 11.3911 21.2466 11.4165 21.2213 11.4418L21.1959 11.4672C21.2466 11.3404 21.272 11.1883 21.2973 11.0361C21.2973 11.0615 21.3227 11.0868 21.3227 11.1122C21.3227 11.1883 21.2973 11.2897 21.272 11.3657ZM23.0975 11.4925C23.0721 11.4672 23.0468 11.4418 23.0468 11.4165C23.0214 11.3404 22.9961 11.239 23.0214 11.1629C23.0214 11.1376 23.0468 11.1122 23.0468 11.0868C23.0468 11.239 23.0721 11.3911 23.1482 11.5179C23.0975 11.4925 23.0975 11.4925 23.0975 11.4925ZM24.3398 12.2024C23.706 12.2024 23.1735 11.67 23.1735 11.0361C23.1735 10.4023 23.706 9.86983 24.3398 9.86983C24.9737 9.86983 25.5061 10.4023 25.5061 11.0361C25.5061 11.67 24.9737 12.2024 24.3398 12.2024Z" fill="#302420"/>
<path d="M18.7071 9.21064C19.0621 8.95709 19.4677 8.85568 19.8988 8.93174C20.0763 8.95709 20.2284 8.77961 20.1777 8.60213C20.1523 8.50071 20.1016 8.45001 20.0002 8.3993C19.3917 8.22182 18.8085 8.32323 18.3522 8.77961C18.3014 8.83032 18.2761 8.93174 18.3015 9.0078V9.03316C18.3522 9.23599 18.555 9.31206 18.7071 9.21064Z" fill="#2A445D"/>
<path d="M12.9867 35.4524C12.9867 35.4524 12.6571 28.5053 14.9897 27.6179C15.5221 27.4151 16.0292 27.5419 16.3842 27.7193C17.6266 28.3786 17.9308 30.7365 18.0322 31.8268C18.159 33.2213 18.3365 35.2496 18.1083 35.8328C18.1083 35.8328 18.1844 32.6127 17.6519 30.2548C17.1195 27.8968 16.0799 27.6433 15.4461 27.6686C14.7869 27.694 14.0262 28.4293 13.6206 29.8491C13.1895 31.2943 12.9867 35.4524 12.9867 35.4524Z" fill="#1A2026"/>
<path d="M12.6523 35.9596C12.6523 35.9342 12.8045 36.5681 13.4383 36.7202C14.0722 36.8723 14.3764 36.5173 14.3764 36.5173C14.3764 36.5173 14.3257 36.923 14.4018 37.0244C14.4018 37.0244 12.7031 37.2273 12.6523 35.9596Z" fill="#1A2026"/>
<path d="M18.5106 35.5031C18.5106 35.4778 18.5359 35.782 18.4091 36.0356C18.181 36.4666 18.0035 36.492 17.7753 36.6187C17.2175 36.923 17.0146 36.5173 17.0146 36.5173C17.0146 36.5173 17.0907 36.8976 17.04 36.9991C17.04 36.9991 18.6373 36.9483 18.5106 35.5031Z" fill="#1A2026"/>
<path d="M15.2607 23.5612L15.6157 23.4852L15.5904 23.6626L15.2607 23.7387V23.5612Z" fill="#1A2026"/>
</svg>
