<svg width="31" height="35" viewBox="0 0 31 35" fill="none" xmlns="http://www.w3.org/2000/svg">
<path d="M29.0977 13.9L5.65129 0.497831C5.08153 0.172103 4.43328 0 3.77694 0C3.11205 0 2.45662 0.176379 1.88152 0.510048C0.720937 1.18334 0 2.4351 0 3.77695V30.5815C0 31.9232 0.720937 33.1749 1.88122 33.8482C2.45632 34.1822 3.1119 34.3586 3.77679 34.3586C4.43283 34.3586 5.08107 34.1863 5.65113 33.8606L29.0972 20.4583C30.271 19.7872 31 18.5309 31 17.1791C31 15.8274 30.2713 14.571 29.0977 13.9ZM18.9375 10.731L15.7183 15.2151L8.01797 4.48918L18.9375 10.731ZM3.62912 32.0548C3.41976 32.0345 3.21436 31.9734 3.03096 31.867C2.57436 31.602 2.29063 31.1094 2.29063 30.5815V3.7768C2.29063 3.24888 2.57436 2.75624 3.03111 2.49129C3.21391 2.38516 3.41762 2.32194 3.62698 2.30041L14.3083 17.1791L3.62912 32.0548ZM8.01797 29.8692L15.7183 19.1431L18.9375 23.6273L8.01797 29.8692ZM27.9608 18.4694L20.9368 22.4844L17.1281 17.1791L20.9368 11.8739L27.9608 15.8889C28.4226 16.1529 28.7095 16.6473 28.7095 17.1791C28.7095 17.711 28.4227 18.2055 27.9608 18.4694Z" fill="white"/>
</svg>
