<svg width="25" height="33" viewBox="0 0 25 33" fill="none" xmlns="http://www.w3.org/2000/svg">
<path d="M12.5 0C5.60746 0 0 5.60746 0 12.5C0 15.8482 2.02851 20.148 6.02915 25.2792C7.86203 27.624 9.84693 29.846 11.971 31.9306C12.1135 32.0668 12.3029 32.1428 12.5 32.1428C12.6971 32.1428 12.8865 32.0668 13.029 31.9306C15.1531 29.846 17.138 27.624 18.9709 25.2792C22.9715 20.148 25 15.8482 25 12.5C25 5.60746 19.3925 0 12.5 0ZM12.5 21.4286C7.57653 21.4286 3.57143 17.4235 3.57143 12.5C3.57143 7.57653 7.57653 3.57143 12.5 3.57143C17.4235 3.57143 21.4286 7.57653 21.4286 12.5C21.4286 17.4235 17.4235 21.4286 12.5 21.4286Z" fill="#212A31"/>
<path d="M18.6267 11.4235L13.0145 6.32151C12.8736 6.19344 12.69 6.12249 12.4997 6.12249C12.3093 6.12249 12.1257 6.19344 11.9849 6.32151L6.37262 11.4235C6.24187 11.5424 6.15628 11.7029 6.13035 11.8777C6.10443 12.0525 6.13978 12.2309 6.2304 12.3827C6.3019 12.4982 6.4021 12.5932 6.52125 12.6585C6.64039 12.7238 6.77441 12.757 6.91025 12.7551H7.65272V17.6021C7.65272 17.805 7.73335 17.9997 7.87688 18.1432C8.0204 18.2867 8.21506 18.3674 8.41803 18.3674H10.2037C10.4067 18.3674 10.6014 18.2867 10.7449 18.1432C10.8884 17.9997 10.969 17.805 10.969 17.6021V14.7959C10.969 14.593 11.0497 14.3983 11.1932 14.2548C11.3367 14.1113 11.5314 14.0306 11.7344 14.0306H13.265C13.4679 14.0306 13.6626 14.1113 13.8061 14.2548C13.9496 14.3983 14.0303 14.593 14.0303 14.7959V17.6021C14.0303 17.805 14.1109 17.9997 14.2544 18.1432C14.3979 18.2867 14.5926 18.3674 14.7956 18.3674H16.5813C16.7843 18.3674 16.9789 18.2867 17.1224 18.1432C17.266 17.9997 17.3466 17.805 17.3466 17.6021V12.7551H18.0891C18.2249 12.757 18.3589 12.7238 18.4781 12.6585C18.5972 12.5932 18.6974 12.4982 18.7689 12.3827C18.8595 12.2309 18.8949 12.0525 18.869 11.8777C18.843 11.7029 18.7575 11.5424 18.6267 11.4235Z" fill="#212A31"/>
</svg>
