<svg xmlns="http://www.w3.org/2000/svg" width="41" height="41" fill="none" xmlns:v="https://vecta.io/nano"><rect width="41" height="41" rx="11" fill="url(#A)"/><path d="M25.718 5.963H14.537a9.32 9.32 0 0 0-9.318 9.318v11.182a9.32 9.32 0 0 0 9.318 9.318h11.182a9.32 9.32 0 0 0 9.318-9.318V15.281a9.32 9.32 0 0 0-9.318-9.318zm6.523 20.5a6.53 6.53 0 0 1-6.523 6.523H14.537a6.53 6.53 0 0 1-6.523-6.523V15.281a6.53 6.53 0 0 1 6.523-6.523h11.182a6.53 6.53 0 0 1 6.523 6.523v11.182zM20.127 13.418c-4.117 0-7.455 3.338-7.455 7.454a7.46 7.46 0 0 0 7.455 7.455c4.117 0 7.454-3.338 7.454-7.455s-3.338-7.454-7.454-7.454zm0 12.114c-2.568 0-4.659-2.091-4.659-4.659s2.091-4.659 4.659-4.659 4.659 2.089 4.659 4.659-2.091 4.659-4.659 4.659zm8.014-11.679c.549 0 .993-.445.993-.993s-.445-.993-.993-.993-.993.445-.993.993.445.993.993.993z" fill="#fff"/><defs><linearGradient id="A" x1="0" y1="0" x2="41" y2="41" gradientUnits="userSpaceOnUse"><stop stop-color="#5851db"/><stop offset=".557" stop-color="#e1306c"/><stop offset=".969" stop-color="#fccc63"/></linearGradient></defs></svg>