<svg width="25" height="18" viewBox="0 0 25 18" fill="none" xmlns="http://www.w3.org/2000/svg">
<path d="M22.8027 0H2.19727C0.985693 0 0 0.985693 0 2.19727V14.9308C0 16.1423 0.985693 17.128 2.19727 17.128H22.8027C24.0143 17.128 25 16.1423 25 14.9308V2.19727C25 0.985693 24.0143 0 22.8027 0ZM22.516 1.46484L22.2227 1.70903L13.3718 9.0792C12.8666 9.4998 12.1333 9.4998 11.6282 9.0792L2.7773 1.70903L2.48403 1.46484H22.516ZM1.46484 2.52236L8.67637 8.52739L1.46484 13.3269V2.52236ZM22.8027 15.6632H2.19727C1.84336 15.6632 1.54736 15.4108 1.47954 15.0767L9.85088 9.50537L10.6909 10.2049C11.215 10.6413 11.8576 10.8595 12.5 10.8595C13.1425 10.8595 13.785 10.6413 14.3092 10.2049L15.1492 9.50537L23.5205 15.0767C23.4526 15.4109 23.1566 15.6632 22.8027 15.6632ZM23.5352 13.3269L16.3236 8.52744L23.5352 2.52236V13.3269Z" fill="#212A31"/>
</svg>
