<svg width="23" height="30" viewBox="0 0 23 30" fill="none" xmlns="http://www.w3.org/2000/svg">
<path d="M22.7189 6.22891L22.3248 5.83484L17.1652 0.675178L16.7711 0.281111C16.5927 0.102733 16.3453 0 16.0923 0H1.25887C0.652689 0 0 0.468178 0 1.49551V19.9333V28.3856V28.6222C0 29.05 0.430356 29.4671 0.939422 29.5984C0.964978 29.6051 0.989511 29.6148 1.01609 29.6199C1.09582 29.6358 1.17709 29.6444 1.25887 29.6444H21.7411C21.8229 29.6444 21.9042 29.6358 21.9839 29.6199C22.0105 29.6148 22.035 29.6051 22.0606 29.5984C22.5696 29.4671 23 29.05 23 28.6222V28.3856V19.9333V7.14431C23 6.75229 22.953 6.463 22.7189 6.22891ZM21.1779 6.13333H16.8667V1.82211L21.1779 6.13333ZM1.25887 28.6222C1.22258 28.6222 1.18987 28.6089 1.15767 28.5972C1.07793 28.5594 1.02222 28.4796 1.02222 28.3856V20.9556H21.9778V28.3856C21.9778 28.4796 21.9221 28.5588 21.8423 28.5972C21.8101 28.6089 21.7774 28.6222 21.7411 28.6222H1.25887ZM1.02222 19.9333V1.49551C1.02222 1.3846 1.03909 1.02222 1.25887 1.02222H15.8741C15.8572 1.08662 15.8444 1.15307 15.8444 1.22207V7.15556H21.7779C21.8469 7.15556 21.9129 7.14278 21.9773 7.12591C21.9773 7.13358 21.9778 7.13664 21.9778 7.14431V19.9333H1.02222Z" fill="white"/>
<path d="M7.94661 22.8691C7.77641 22.7296 7.58424 22.6243 7.37008 22.5548C7.15592 22.4848 6.93921 22.45 6.72046 22.45H5.23926V27.6H6.07799V25.7411H6.70001C6.96988 25.7411 7.21726 25.7017 7.44061 25.6225C7.66397 25.5433 7.85512 25.4313 8.01357 25.2872C8.17201 25.1431 8.29519 24.9647 8.38412 24.7526C8.47255 24.5405 8.51701 24.3043 8.51701 24.0432C8.51701 23.7963 8.46437 23.574 8.35959 23.3757C8.25481 23.1773 8.11681 23.0092 7.94661 22.8691ZM7.6287 24.5706C7.57708 24.7127 7.51012 24.8231 7.4263 24.9023C7.34248 24.9816 7.25048 25.0388 7.1503 25.0736C7.05012 25.1083 6.94841 25.1262 6.84619 25.1262H6.07748V23.0859H6.70615C6.9203 23.0859 7.09255 23.1196 7.22339 23.1871C7.35372 23.2545 7.45492 23.3383 7.5275 23.4385C7.59957 23.5387 7.6471 23.6435 7.67061 23.7529C7.69361 23.8622 7.70537 23.9588 7.70537 24.0427C7.70537 24.2527 7.67981 24.4285 7.6287 24.5706Z" fill="white"/>
<path d="M13.0074 23.2044C12.7907 22.9765 12.5183 22.793 12.1896 22.656C11.861 22.519 11.4802 22.45 11.0473 22.45H9.49609V27.6H11.4455C11.5104 27.6 11.6106 27.5918 11.746 27.5755C11.8809 27.5591 12.0302 27.5223 12.1932 27.4635C12.3563 27.4053 12.5249 27.3179 12.6997 27.2013C12.8745 27.0848 13.0314 26.9253 13.1715 26.7224C13.3115 26.5195 13.4265 26.268 13.5175 25.9675C13.6085 25.667 13.654 25.3046 13.654 24.8809C13.654 24.5732 13.6003 24.2737 13.4935 23.9829C13.3856 23.6925 13.2241 23.4329 13.0074 23.2044ZM12.3961 26.4398C12.1447 26.8032 11.7348 26.9846 11.1664 26.9846H10.3348V23.0853H10.824C11.2247 23.0853 11.5508 23.138 11.8022 23.2428C12.0537 23.3475 12.253 23.485 12.3997 23.6552C12.5464 23.8254 12.645 24.0151 12.6967 24.2246C12.7478 24.4342 12.7733 24.6463 12.7733 24.8604C12.7733 25.5499 12.6476 26.0769 12.3961 26.4398Z" fill="white"/>
<path d="M14.875 27.6H15.7275V25.2801H17.8798V24.7071H15.7275V23.0859H18.096V22.45H14.875V27.6Z" fill="white"/>
<path d="M16.32 11.7356C15.8503 11.7356 15.2737 11.7969 14.6037 11.9186C13.6683 10.926 12.6921 9.4765 12.0031 8.05357C12.6865 5.17652 12.3446 4.76917 12.1938 4.57699C12.0333 4.37255 11.8069 4.04084 11.5493 4.04084C11.4414 4.04084 11.147 4.0899 11.03 4.12875C10.7356 4.22688 10.5771 4.45381 10.4504 4.74975C10.089 5.59461 10.5848 7.03492 11.0949 8.14506C10.6589 9.87925 9.92752 11.9549 9.15881 13.6395C7.2217 14.5268 6.19283 15.3982 6.09981 16.2298C6.06608 16.5324 6.13763 16.9765 6.6697 17.3757C6.81537 17.4846 6.98608 17.5423 7.16394 17.5423C7.61117 17.5423 8.06299 17.1999 8.58586 16.4654C8.96714 15.9298 9.37654 15.1994 9.80383 14.2927C11.1726 13.6942 12.8659 13.1534 14.3159 12.8503C15.1235 13.6257 15.8467 14.0182 16.4682 14.0182C16.9262 14.0182 17.3187 13.8077 17.6029 13.4095C17.8988 12.995 17.9663 12.6239 17.8022 12.3055C17.6054 11.9227 17.1204 11.7356 16.32 11.7356ZM7.17519 16.6796C6.93599 16.4961 6.94979 16.3724 6.9549 16.3259C6.98659 16.0417 7.43177 15.5373 8.52401 14.9234C7.69601 16.4527 7.25134 16.6556 7.17519 16.6796ZM11.3663 4.9639C11.3883 4.95675 11.9004 5.52664 11.4154 6.60763C10.6865 5.86192 11.3162 4.98077 11.3663 4.9639ZM10.3098 13.155C10.8286 11.9186 11.3111 10.5534 11.6765 9.28892C12.2505 10.3203 12.94 11.3211 13.63 12.1225C12.5393 12.3786 11.3781 12.7399 10.3098 13.155ZM16.9037 12.9101C16.7463 13.1304 16.4048 13.1355 16.2852 13.1355C16.0128 13.1355 15.9111 12.9735 15.4945 12.6531C15.838 12.6091 16.1621 12.5979 16.4202 12.5979C16.8745 12.5979 16.9579 12.6648 17.0207 12.6985C17.0095 12.7348 16.9798 12.8033 16.9037 12.9101Z" fill="white"/>
</svg>
