<svg xmlns="http://www.w3.org/2000/svg" width="41" height="41" fill="none" xmlns:v="https://vecta.io/nano"><rect width="41" height="41" rx="11" fill="#05a5ff"/><path fill-rule="evenodd" d="M35.037 20.872c0 8.234-6.675 14.909-14.909 14.909S5.218 29.106 5.218 20.872 11.893 5.963 20.128 5.963s14.909 6.675 14.909 14.909zm-7.824-3.634c.721-.085 1.408-.277 2.047-.561-.477.715-1.082 1.342-1.778 1.844a10.21 10.21 0 0 1 .01.461c0 4.71-3.585 10.14-10.14 10.14a10.08 10.08 0 0 1-5.462-1.601 7.16 7.16 0 0 0 .85.05 7.15 7.15 0 0 0 4.426-1.526 3.57 3.57 0 0 1-3.329-2.475c.217.041.44.063.671.063a3.55 3.55 0 0 0 .939-.125c-1.63-.327-2.859-1.767-2.859-3.494v-.045a3.54 3.54 0 0 0 1.614.446c-.956-.639-1.585-1.73-1.585-2.966a3.55 3.55 0 0 1 .483-1.792c1.758 2.157 4.384 3.575 7.346 3.724-.061-.261-.093-.533-.093-.812 0-1.968 1.596-3.564 3.564-3.564a3.56 3.56 0 0 1 2.602 1.125c.811-.16 1.574-.456 2.263-.865-.267.833-.831 1.53-1.567 1.971z" fill="#fff"/></svg>