<svg width="25" height="25" viewBox="0 0 25 25" fill="none" xmlns="http://www.w3.org/2000/svg">
<path d="M21.3388 3.66116C18.9779 1.30024 15.839 0 12.5002 0H12.4998C9.161 0 6.02207 1.30024 3.66116 3.66116C1.30024 6.02207 0 9.16119 0 12.5C0 15.8388 1.30024 18.9779 3.66116 21.3388C6.02207 23.6998 9.16119 25 12.5 25C15.8388 25 18.9779 23.6998 21.3388 21.3388C23.6998 18.9779 25 15.8388 25 12.5C25 9.16119 23.6998 6.02207 21.3388 3.66116ZM22.1554 17.8377H18.4969C18.9871 16.4015 19.2823 14.8464 19.3512 13.2324H23.5102C23.4009 14.8941 22.9221 16.4562 22.1554 17.8377ZM12.5 23.4268C10.9409 22.4991 9.64794 21.0611 8.71792 19.3026H16.2821C15.3521 21.0611 14.0591 22.4991 12.5 23.4268ZM8.05588 17.8377C7.51724 16.4246 7.1907 14.8642 7.11517 13.2324H17.8848C17.8093 14.8642 17.4826 16.4246 16.9439 17.8377H8.05588ZM1.48983 13.2324H5.6488C5.71766 14.8464 6.01292 16.4015 6.50311 17.8377H2.84462C2.07787 16.4562 1.59912 14.8941 1.48983 13.2324ZM2.84462 7.16228H6.50311C6.01292 8.59852 5.71766 10.1536 5.6488 11.7676H1.48983C1.59912 10.1059 2.07787 8.54378 2.84462 7.16228ZM12.5 1.57318C14.0591 2.50092 15.3521 3.93887 16.2821 5.69744H8.71792C9.64794 3.93887 10.9409 2.50092 12.5 1.57318ZM16.9441 7.16228C17.4828 8.57544 17.8093 10.1358 17.8848 11.7676H7.11517C7.1907 10.1358 7.51743 8.57544 8.05607 7.16228H16.9441ZM23.5102 11.7676H19.3512C19.2823 10.1536 18.9871 8.59852 18.4969 7.16228H22.1554C22.9221 8.54378 23.4009 10.1059 23.5102 11.7676ZM17.9104 5.69744C17.2142 4.19369 16.288 2.86484 15.176 1.79367C17.5896 2.39716 19.6913 3.79696 21.1834 5.69744H17.9104ZM9.82399 1.79367C8.71201 2.86484 7.7858 4.19369 7.08961 5.69744H3.8166C5.30872 3.79696 7.41043 2.39716 9.82399 1.79367ZM7.08961 19.3026C7.7858 20.8063 8.71201 22.1352 9.82399 23.2063C7.41043 22.6028 5.30872 21.203 3.8166 19.3026H7.08961ZM15.176 23.2063C16.288 22.1352 17.2142 20.8061 17.9104 19.3026H21.1834C19.6913 21.203 17.5896 22.6028 15.176 23.2063Z" fill="#212A31"/>
</svg>
