<svg width="768" height="1024" viewBox="0 0 768 1024" fill="none" xmlns="http://www.w3.org/2000/svg">
<g clip-path="url(#clip0)">
<rect width="768" height="1024" fill="white"/>
<g clip-path="url(#clip1)">
<path fill-rule="evenodd" clip-rule="evenodd" d="M33.5 1132C105.021 1132 163 1074.02 163 1002.5C163 930.979 105.021 873 33.5 873C-38.0209 873 -96 930.979 -96 1002.5C-96 1074.02 -38.0209 1132 33.5 1132ZM33.5 1114.52C-28.3661 1114.52 -78.5184 1064.37 -78.5184 1002.5C-78.5184 940.634 -28.3661 890.482 33.5 890.482C95.3661 890.482 145.518 940.634 145.518 1002.5C145.518 1064.37 95.3661 1114.52 33.5 1114.52ZM33.5085 1061.14C65.8952 1061.14 92.1499 1034.89 92.1499 1002.5C92.1499 970.113 65.8952 943.858 33.5085 943.858C1.12168 943.858 -25.133 970.113 -25.133 1002.5C-25.133 1034.89 1.12168 1061.14 33.5085 1061.14Z" fill="#2E398F" fill-opacity="0.3"/>
<path d="M129 1003C129 1055.47 86.4671 1098 34 1098C-18.4671 1098 -61 1055.47 -61 1003C-61 950.533 -18.4671 908 34 908C86.4671 908 129 950.533 129 1003ZM-48.1757 1003C-48.1757 1048.38 -11.3844 1085.18 34 1085.18C79.3844 1085.18 116.176 1048.38 116.176 1003C116.176 957.616 79.3844 920.824 34 920.824C-11.3844 920.824 -48.1757 957.616 -48.1757 1003Z" fill="#2E398F" fill-opacity="0.3"/>
<path fill-rule="evenodd" clip-rule="evenodd" d="M768 1191C855.813 1191 927 1119.81 927 1032C927 944.187 855.813 873 768 873C680.187 873 609 944.187 609 1032C609 1119.81 680.187 1191 768 1191ZM768 1143.93C706.183 1143.93 656.07 1093.82 656.07 1032C656.07 970.183 706.183 920.07 768 920.07C829.817 920.07 879.93 970.183 879.93 1032C879.93 1093.82 829.817 1143.93 768 1143.93ZM768 1104C807.764 1104 840 1071.76 840 1032C840 992.235 807.764 960 768 960C728.235 960 696 992.235 696 1032C696 1071.76 728.235 1104 768 1104Z" fill="#2E398F" fill-opacity="0.3"/>
</g>
<path d="M25.696 1332.67C29.9214 1325.72 -119.13 1696.91 40.5919 1308.99C200.314 921.065 631.068 563.374 761.113 324.667C891.157 85.9613 851.632 503.01 851.632 503.01C610.545 806.66 465.559 967.289 193.338 1247.58C193.338 1247.58 -61.0989 1475.41 25.696 1332.67Z" fill="#2E398F"/>
<path d="M368.611 1305.64C370.57 1297.75 339.092 1696.51 375.761 1278.59C412.43 860.682 716.801 390.735 769.678 124.096C822.555 -142.543 909.298 267.296 909.298 267.296C769.821 629.059 679.382 825.638 503.219 1174.4C503.219 1174.4 328.372 1467.78 368.611 1305.64Z" fill="url(#paint0_linear)"/>
</g>
<defs>
<linearGradient id="paint0_linear" x1="643.089" y1="68.7497" x2="470.032" y2="1226.31" gradientUnits="userSpaceOnUse">
<stop stop-color="#2E398F"/>
<stop offset="0.986664" stop-color="#2E398F" stop-opacity="0"/>
</linearGradient>
<clipPath id="clip0">
<rect width="768" height="1024" fill="white"/>
</clipPath>
<clipPath id="clip1">
<rect width="768" height="1024" fill="white"/>
</clipPath>
</defs>
</svg>
