<svg width="1440" height="690" viewBox="0 0 1440 690" fill="none" xmlns="http://www.w3.org/2000/svg">
<g clip-path="url(#clip0)">
<path d="M554.092 911.716C558.829 905.106 382.199 1264 570.731 889.229C759.263 514.46 1215.77 190.284 1363.46 -37.9315C1511.14 -266.147 1440.26 146.732 1440.26 146.732C1176.96 431.329 1020.26 580.562 727.675 839.517C727.675 839.517 456.776 1047.5 554.092 911.716Z" fill="#2E398F"/>
<path d="M328 701C334.913 696.716 33.9998 960.254 352 686.627C670 413 1216 289 1440 135C1664 -19 1440 335 1440 335C1087.59 496.653 885.602 574.268 516 701C516 701 186 789 328 701Z" fill="url(#paint0_linear)"/>
<path fill-rule="evenodd" clip-rule="evenodd" d="M61.5 760C133.021 760 191 702.021 191 630.5C191 558.979 133.021 501 61.5 501C-10.0209 501 -68 558.979 -68 630.5C-68 702.021 -10.0209 760 61.5 760ZM61.5 742.518C-0.366074 742.518 -50.5184 692.366 -50.5184 630.5C-50.5184 568.634 -0.366074 518.482 61.5 518.482C123.366 518.482 173.518 568.634 173.518 630.5C173.518 692.366 123.366 742.518 61.5 742.518ZM61.5085 689.141C93.8952 689.141 120.15 662.886 120.15 630.5C120.15 598.113 93.8952 571.858 61.5085 571.858C29.1217 571.858 2.867 598.113 2.867 630.5C2.867 662.886 29.1217 689.141 61.5085 689.141Z" fill="#2E398F" fill-opacity="0.3"/>
<path d="M157 631C157 683.467 114.467 726 62 726C9.53295 726 -33 683.467 -33 631C-33 578.533 9.53295 536 62 536C114.467 536 157 578.533 157 631ZM-20.1757 631C-20.1757 676.384 16.6156 713.176 62 713.176C107.384 713.176 144.176 676.384 144.176 631C144.176 585.616 107.384 548.824 62 548.824C16.6156 548.824 -20.1757 585.616 -20.1757 631Z" fill="#2E398F" fill-opacity="0.3"/>
<path fill-rule="evenodd" clip-rule="evenodd" d="M1440 849C1527.81 849 1599 777.813 1599 690C1599 602.187 1527.81 531 1440 531C1352.19 531 1281 602.187 1281 690C1281 777.813 1352.19 849 1440 849ZM1440 801.93C1378.18 801.93 1328.07 751.817 1328.07 690C1328.07 628.183 1378.18 578.07 1440 578.07C1501.82 578.07 1551.93 628.183 1551.93 690C1551.93 751.817 1501.82 801.93 1440 801.93ZM1440 762C1479.76 762 1512 729.764 1512 690C1512 650.235 1479.76 618 1440 618C1400.24 618 1368 650.235 1368 690C1368 729.764 1400.24 762 1440 762Z" fill="#2E398F" fill-opacity="0.3"/>
</g>
<defs>
<linearGradient id="paint0_linear" x1="1388" y1="7.00001" x2="456" y2="715" gradientUnits="userSpaceOnUse">
<stop stop-color="#2E398F"/>
<stop offset="0.986664" stop-color="#2E398F" stop-opacity="0"/>
</linearGradient>
<clipPath id="clip0">
<rect width="1440" height="690" fill="white"/>
</clipPath>
</defs>
</svg>
