<svg xmlns="http://www.w3.org/2000/svg" xmlns:xlink="http://www.w3.org/1999/xlink" width="1440" height="183" fill="none" xmlns:v="https://vecta.io/nano"><style><![CDATA[.B{opacity:.56}.C{opacity:.57}.D{fill:#fff}.E{stroke:#fff}.F{stroke-miterlimit:10}.G{opacity:.5}.H{stroke-width:.54}.I{stroke-width:.499}.J{stroke-opacity:.3}.K{stroke-width:.445}]]></style><g clip-path="url(#H)"><path d="M1440 0H-1V183H1440V0Z" fill="url(#A)"/><g class="G"><path d="M236.327 181.975c5.249-6.551 7.818-14.201 3.462-21.264-2.289-3.66-6.254-7.43-11.224-9.699-4.076-1.867-9.046-2.745-13.793-3.477-8.488-1.318-19.154-2.123-24.291-7.357-5.584-5.71-1.396-13.322 3.015-18.739 5.529-6.735 13.123-12.627 20.383-18.593 7.594-6.222 14.239-13.03 17.59-20.789 1.843-4.209 2.569-8.711 1.34-13.03-1.229-4.538-4.579-8.747-9.326-12.188-7.985-5.819-20.103-8.272-31.718-8.821-11.838-.549-23.788.586-35.292 2.452-16.752 2.745-32.667 8.052-50.201 8.381-7.204.146-15.301-.732-19.992-4.685-4.579-3.843-5.417-9.992-2.792-14.494 2.68-4.575 8.767-7.723 15.077-10.065 7.538-2.818 15.803-4.795 23.844-6.881 7.483-1.94 15.412-3.916 21.778-7.247 3.016-1.574 5.305-3.514 7.036-5.783 1.731-2.196 2.792-4.831 1.396-7.247-.558-.952-1.396-1.757-2.401-2.452H-1v183h236.434c.279-.293.614-.659.893-1.025z" fill="url(#B)" class="G"/><path d="M147.411 181.15c1.753-7.309 1.686-20.529-8.768-25.582-6.744-3.294-14.433-2.707-21.649-.677-17.266 4.783-27.248 10.829-46.739 12.588-32.845 2.978-34.599-18.092-9.982-28.289l25.763-10.512c38.578-14.754 95.028-45.389 69.602-77.514-9.375-11.866-28.866-19.13-49.841-17.1-1.619.18-3.305.451-4.856.767C-2.853 55.631-4 0-4 0v182.955c0-.045 139.473.045 150.938.045.203-.632.338-1.263.473-1.85z" fill="url(#C)" class="G"/><path d="M27.077 182.946c-5.137-5.354-6.544-12.762-6.474-19.036.141-10.707 6.544-19.522 16.326-27.363 8.937-7.192 19.351-13.411 27.373-21.145 7.037-6.759 12.174-14.709 14.496-22.929 2.252-8.112 1.689-16.98-4.715-24.065-7.67-8.544-21.322-11.519-34.058-14.601-12.526-3.136-22.659-7.409-29.625-15.737-5.981-7.192-9.148-15.52-9.781-23.794C.267 9.464.9 4.651 2.378 0H-1v183c0-.054 11.681-.054 28.077-.054z" fill="url(#D)" class="G"/><g class="E F J"><path d="M-351.1 67.569L3.6-265.303M-345.2 74.232L9.6-258.64M-339.2 80.895L15.5-251.977M-333.3 87.558L21.4-245.314M-327.4 94.315L27.4-238.651m-348.8 339.629L33.3-231.894m-348.8 339.535L39.2-225.231m-348.7 339.535L45.2-218.568m-348.8 339.536L51.1-211.905m-348.8 339.629L57.1-205.242m-348.8 339.63L63-198.579m-348.8 339.63L68.9-191.822m-348.8 339.536L74.9-185.159m-348.8 339.536L80.8-178.496M-268 161.134L86.8-171.833M-262 167.797L92.7-165.169M-256.1 174.46L98.6-158.413m-348.8 339.536L104.6-151.75m-348.8 339.536l354.7-332.872m-348.8 339.535l354.7-332.872m-348.7 339.629L122.4-131.76m-348.8 339.629l354.7-332.966m-348.8 339.629L134.3-118.34m-348.8 339.536l354.7-332.873m-348.8 339.535l354.7-332.872m-348.8 339.629L152.1-98.351m-348.8 339.63L158-91.687m-348.8 339.629L164-84.931m-348.8 339.536L169.9-78.268m-348.8 339.536L175.8-71.604M-173 267.931L181.8-64.941M-167 274.688L187.7-58.278m-348.8 339.629L193.6-51.521m-348.8 339.535L199.6-44.858m-348.8 339.535L205.5-38.195M-143.3 301.34L211.5-31.532m-348.8 339.629L217.4-24.869M-131.4 314.76L223.3-18.206m-348.8 339.629L229.3-11.449m-348.8 339.535L235.2-4.786m-348.8 339.535L241.1 1.877m-348.7 339.629L247.1 8.54m-348.8 339.629L253 15.203M-95.8 354.832L259 21.96M-89.8 361.495L264.9 28.623M-83.9 368.158L270.8 35.286M-78 374.822L276.8 41.949M-72 381.578L282.7 48.612m-348.8 339.63L288.7 55.275m-348.8 339.63L294.6 62.032M-54.2 401.568L300.5 68.695M-48.3 408.231L306.5 75.358m-348.8 339.63L312.4 82.022M-36.4 421.651L318.3 88.685M-30.4 428.314L324.3 95.441M-24.5 434.977l354.7-332.873M-18.6 441.64l354.8-332.872M-12.6 448.303l354.7-332.872M-6.7 455.06L348 122.094M-.8 461.723L354 128.851" class="G"/></g><path d="M1194.67 183.975c-5.25-6.551-7.82-14.201-3.46-21.264 2.29-3.66 6.25-7.43 11.22-9.699 4.08-1.867 9.05-2.745 13.8-3.477 8.49-1.318 19.15-2.123 24.29-7.357 5.58-5.71 1.39-13.322-3.02-18.739-5.53-6.735-13.12-12.627-20.38-18.593-7.59-6.222-14.24-13.03-17.59-20.789-1.84-4.209-2.57-8.711-1.34-13.03 1.23-4.538 4.58-8.747 9.33-12.188 7.98-5.819 20.1-8.272 31.72-8.821 11.83-.549 23.78.586 35.29 2.452 16.75 2.745 32.66 8.052 50.2 8.381 7.2.146 15.3-.732 19.99-4.685 4.58-3.843 5.42-9.992 2.79-14.494-2.68-4.575-8.77-7.723-15.08-10.065-7.53-2.818-15.8-4.795-23.84-6.881-7.48-1.94-15.41-3.916-21.78-7.247-3.01-1.574-5.3-3.514-7.03-5.783-1.74-2.196-2.8-4.831-1.4-7.247.56-.952 1.4-1.757 2.4-2.452H1432v183h-236.43c-.28-.293-.62-.659-.9-1.025z" fill="url(#E)" class="G"/><path d="M1283.59 183.15c-1.75-7.309-1.69-20.529 8.77-25.582 6.74-3.294 14.43-2.707 21.65-.677 17.26 4.783 27.24 10.829 46.73 12.588 32.85 2.978 34.6-18.092 9.99-28.289l-25.77-10.512c-38.58-14.754-95.03-45.389-69.6-77.514 9.38-11.866 28.87-19.13 49.84-17.1 1.62.18 3.31.451 4.86.767C1433.85 57.631 1435 2 1435 2v182.955c0-.045-139.47.045-150.94.045-.2-.632-.34-1.263-.47-1.85z" fill="url(#F)" class="G"/><path d="M1403.92 184.946c5.14-5.354 6.55-12.762 6.48-19.036-.14-10.707-6.55-19.522-16.33-27.363-8.94-7.192-19.35-13.411-27.37-21.145-7.04-6.759-12.18-14.709-14.5-22.929-2.25-8.112-1.69-16.98 4.72-24.065 7.67-8.544 21.32-11.519 34.05-14.601 12.53-3.136 22.66-7.409 29.63-15.737 5.98-7.192 9.15-15.52 9.78-23.794.35-4.813-.28-9.626-1.76-14.277h3.38v183c0-.054-11.68-.054-28.08-.054z" fill="url(#G)" class="G"/><g class="E F J"><path d="M1790.1 64.66l-354.8-332.966m348.8 339.629l-354.7-332.872m348.8 339.535l-354.8-332.872m348.8 339.535l-354.7-332.872m348.8 339.536L1411.6-241.56m348.8 339.629l-354.8-332.966m348.8 339.629L1399.7-228.14m348.8 339.535l-354.7-332.872m348.7 339.535l-354.7-332.872m348.8 339.535l-354.7-332.872m348.8 339.629l-354.8-332.966m348.8 339.629L1370-194.825m348.8 339.629l-354.7-332.872m348.8 339.536l-354.8-332.873m348.8 339.536l-354.7-332.873m348.8 339.63l-354.8-332.967m348.8 339.63l-354.7-332.967m348.8 339.63l-354.7-332.873m348.8 339.536l-354.8-332.873m348.8 339.536l-354.7-332.873m348.8 339.536l-354.7-332.872m348.7 339.629l-354.7-332.966m348.8 339.629l-354.7-332.966m348.8 339.629l-354.8-332.872m348.8 339.535l-354.7-332.872m348.8 339.535L1286.9-101.26m348.8 339.629L1280.9-94.597m348.8 339.629L1275-87.934m348.8 339.63L1269-81.177m348.8 339.536L1263.1-74.514m348.8 339.536L1257.2-67.851M1606 271.685L1251.2-61.187M1600 278.442L1245.3-54.524m348.8 339.629L1239.4-47.768m348.8 339.536L1233.4-41.104m348.8 339.535L1227.5-34.441m348.8 339.535L1221.5-27.778m348.8 339.629L1215.6-21.115m348.8 339.629L1209.7-14.452m348.8 339.629L1203.7-7.695m348.8 339.535L1197.8-1.032m348.8 339.535L1191.9 5.631m348.7 339.629L1185.9 12.294m348.8 339.629L1180 18.957m348.8 339.629L1174 25.714m348.8 339.535L1168.1 32.377m348.8 339.535L1162.2 39.04M1511 378.575L1156.2 45.703M1505 385.332L1150.3 52.366m348.8 339.629L1144.3 59.029m348.8 339.629L1138.4 65.786m348.8 339.536L1132.5 72.449m348.8 339.536L1126.5 79.112m348.8 339.63L1120.6 85.775m348.8 339.63L1114.7 92.439m348.7 339.629L1108.7 99.195m348.8 339.536l-354.7-332.873m348.8 339.536l-354.8-332.873m348.8 339.536l-354.7-332.872m348.8 339.629L1085 125.848m348.8 339.629L1079 132.604" class="G"/></g></g><g class="C"><path d="M440.706 1.877l-2.999 2.527 2.999 2.527 3-2.527-3-2.527z" class="C D"/><path d="M446.16 4.381l-5.439 4.582-5.44-4.582" class="C E F I"/><path d="M970.984 147.799l-3.243 2.732 3.243 2.733 3.244-2.733-3.244-2.732z" class="C D"/><path d="M976.83 150.528l-5.882 4.955-5.882-4.955" class="C E F H"/><path d="M1050.9 55.06l-3.24 2.732 3.24 2.732 3.24-2.732-3.24-2.732z" class="C D"/><path d="M1056.75 57.792l-5.89 4.955-5.88-4.955" class="C E F H"/><path d="M785.095 174.752l-2.672 2.253 2.672 2.252 2.672-2.252-2.672-2.253z" class="C D"/><path d="M828.789 178.879L823.942 183l-4.847-4.121" class="C E F K"/><path d="M376.381 125.029l-2.999 2.527 2.999 2.527 2.999-2.527-2.999-2.527z" class="C D"/><path d="M381.786 127.556l-5.439 4.582-5.44-4.582" class="C E F I"/><path d="M522.578 174.009l-2.999 2.527 2.999 2.526 2.999-2.526-2.999-2.527z" class="C D"/><path d="M528 176.533l-5.439 4.624-5.44-4.624" class="C E F I"/><g class="E F I"><path d="M403.194 13.63l-5.439 4.582-5.439-4.582" class="C"/></g><g class="E F I"><path d="M512.53 128.86l-5.439 4.583-5.439-4.583" class="C"/></g><g class="E F H"><path d="M909 41.199l5.882-5.001 5.882 5.001" class="C"/></g><g class="E F H"><path d="M1055.24 6.832l5.88-4.955 5.88 4.955" class="C"/></g><g class="E F H"><path d="M966.092 2.786l-5.882 4.955-5.882-4.955" class="C"/></g><g class="E F H"><path d="M1021.13 173.757l-5.88 4.955-5.88-4.955" class="C"/></g><g class="E F K"><path d="M678.316 169.511l-4.846 4.12-4.847-4.12" class="C"/></g></g><g class="B D"><use xlink:href="#I" class="B"/><use xlink:href="#J" class="B"/><path d="M428.994 164.552c.413 0 .748-.283.748-.631s-.335-.63-.748-.63-.749.282-.749.63.335.631.749.631zm-4.491-9.669c.413 0 .749-.283.749-.631s-.336-.63-.749-.63-.748.282-.748.63.335.631.748.631zm0 4.834c.413 0 .748-.283.748-.631s-.335-.63-.748-.63-.749.282-.749.63.335.631.749.631zm0 4.835c.413 0 .748-.283.748-.631s-.335-.63-.748-.63-.749.282-.749.63.335.631.749.631zm13.723-9.67c.413 0 .748-.282.748-.63s-.335-.631-.748-.631-.749.282-.749.631.335.63.749.63zm0 4.835c.413 0 .748-.283.748-.631s-.335-.63-.748-.63-.749.282-.749.63.335.631.749.631zm0 4.835c.413 0 .748-.283.748-.631s-.335-.63-.748-.63-.749.282-.749.63.335.631.749.631zm-4.491-9.67c.413 0 .748-.282.748-.63s-.335-.631-.748-.631-.749.282-.749.631.335.63.749.63zm0 4.835c.413 0 .748-.283.748-.631s-.335-.63-.748-.63-.749.282-.749.63.335.631.749.631zm0 4.835c.413 0 .748-.283.748-.631s-.335-.63-.748-.63-.749.282-.749.63.335.631.749.631zm13.723-9.67c.413 0 .748-.282.748-.63s-.335-.631-.748-.631-.749.282-.749.631.335.63.749.63zm0 4.835c.413 0 .748-.283.748-.631s-.335-.63-.748-.63-.749.282-.749.63.335.631.749.631zm0 4.835c.413 0 .748-.283.748-.631s-.335-.63-.748-.63-.749.282-.749.63.335.631.749.631z" class="B"/><use xlink:href="#K" class="B"/><use xlink:href="#L" class="B"/><path d="M442.966 164.552c.414 0 .749-.283.749-.631s-.335-.63-.749-.63-.748.282-.748.63.335.631.748.631zm13.724-9.67c.413 0 .748-.282.748-.63s-.335-.631-.748-.631-.749.282-.749.631.335.63.749.63zm0 4.835c.413 0 .748-.283.748-.631s-.335-.63-.748-.63-.749.282-.749.63.335.631.749.631zm0 4.835c.413 0 .748-.283.748-.631s-.335-.63-.748-.63-.749.282-.749.63.335.631.749.631zm-4.492-9.67c.414 0 .749-.282.749-.63s-.335-.631-.749-.631-.748.282-.748.631.335.63.748.63zm0 4.835c.414 0 .749-.283.749-.631s-.335-.63-.749-.63-.748.282-.748.63.335.631.748.631zm0 4.835c.414 0 .749-.283.749-.631s-.335-.63-.749-.63-.748.282-.748.63.335.631.748.631zm13.723-9.67c.414 0 .749-.282.749-.63s-.335-.631-.749-.631-.748.282-.748.631.335.63.748.63zm.001 4.835c.413 0 .748-.283.748-.631s-.335-.63-.748-.63-.749.282-.749.63.335.631.749.631zm0 4.835c.413 0 .748-.283.748-.631s-.335-.63-.748-.63-.749.282-.749.63.335.631.749.631zm-4.492-9.67c.414 0 .749-.282.749-.63s-.335-.631-.749-.631-.748.282-.748.631.335.63.748.63zm0 4.835c.414 0 .749-.283.749-.631s-.335-.63-.749-.63-.748.282-.748.63.335.631.748.631zm0 4.835c.414 0 .749-.283.749-.631s-.335-.63-.749-.63-.748.282-.748.63.335.631.748.631zm13.723-9.67c.414 0 .749-.282.749-.63s-.335-.631-.749-.631-.748.282-.748.631.335.63.748.63zm0 4.835c.414 0 .749-.283.749-.631s-.335-.63-.749-.63-.748.282-.748.63.335.631.748.631zm0 4.835c.414 0 .749-.283.749-.631s-.335-.63-.749-.63-.748.282-.748.63.335.631.748.631zm-4.491-9.67c.414 0 .749-.282.749-.63s-.335-.631-.749-.631-.748.282-.748.631.335.63.748.63zm0 4.835c.414 0 .749-.283.749-.631s-.335-.63-.749-.63-.748.282-.748.63.335.631.748.631zm0 4.835c.414 0 .749-.283.749-.631s-.335-.63-.749-.63-.748.282-.748.63.335.631.748.631zm13.723-9.67c.414 0 .749-.282.749-.63s-.335-.631-.749-.631-.748.282-.748.631.335.63.748.63zm0 4.835c.414 0 .749-.283.749-.631s-.335-.63-.749-.63-.748.282-.748.63.335.631.748.631zm0 4.835c.414 0 .749-.283.749-.631s-.335-.63-.749-.63-.748.282-.748.63.335.631.748.631zm-4.491-9.67c.414 0 .749-.282.749-.63s-.335-.631-.749-.631-.748.282-.748.631.335.63.748.63zm0 4.835c.414 0 .749-.283.749-.631s-.335-.63-.749-.63-.748.282-.748.63.335.631.748.631zm0 4.835c.414 0 .749-.283.749-.631s-.335-.63-.749-.63-.748.282-.748.63.335.631.748.631z" class="B"/></g><g class="B D"><path d="M915.098 70.656c.324.273.324.682 0 .955s-.81.273-1.133 0-.324-.682 0-.955.809-.273 1.133 0z" class="B"/><use xlink:href="#M" class="B"/><use xlink:href="#N" class="B"/><path d="M916.069 77.248a.59.59 0 0 1 0 .955.89.89 0 0 1-1.134 0 .59.59 0 0 1 0-.955.89.89 0 0 1 1.134 0zm3.777 4.864c.447 0 .81-.305.81-.682s-.363-.682-.81-.682-.809.305-.809.682.362.682.809.682zm-1.133-14.502c.324.273.324.682 0 .955s-.809.273-1.133 0-.324-.682 0-.955.809-.273 1.133 0zm3.831 4.864c.447 0 .809-.305.809-.682s-.362-.682-.809-.682-.809.305-.809.682.362.682.809.682zm4.371 3.682c.447 0 .81-.305.81-.682s-.363-.682-.81-.682-.809.305-.809.682.362.682.809.682z" class="B"/></g><g class="B D"><path d="M462.728 7.534c.299.252.299.631 0 .883a.82.82 0 0 1-1.048 0c-.3-.252-.3-.631 0-.883s.798-.252 1.048 0z" class="B"/><use xlink:href="#O" class="B"/><path d="M459.584 10.182c.299.252.299.631 0 .883a.82.82 0 0 1-1.048 0c-.3-.252-.3-.631 0-.883.249-.252.748-.252 1.048 0zm4.042 3.407c.299.252.299.631 0 .883a.82.82 0 0 1-1.048 0c-.3-.252-.3-.631 0-.883a.95.95 0 0 1 1.048 0zm4.042 3.447c.299.252.299.63 0 .883a.82.82 0 0 1-1.048 0c-.3-.252-.3-.631 0-.883s.798-.252 1.048 0zm-2.096-11.267c.414 0 .749-.282.749-.631s-.335-.631-.749-.631-.748.282-.748.631.335.631.748.631zm4.042 3.405c.413 0 .749-.282.749-.631s-.336-.631-.749-.631-.749.282-.749.631.336.631.749.631zm4.092 3.447c.414 0 .749-.282.749-.63s-.335-.631-.749-.631-.748.282-.748.631.335.63.748.63z" class="B"/></g><g class="B D"><path d="M534.102 9.332c.369 0 .667-.252.667-.562s-.298-.562-.667-.562-.666.252-.666.562.298.562.666.562zm7.693 5.132c.267.225.267.562 0 .787a.73.73 0 0 1-.933 0c-.267-.225-.267-.562 0-.787.267-.187.667-.187.933 0zm-10.05-3.708c.267.225.267.562 0 .787a.73.73 0 0 1-.933 0c-.266-.225-.266-.562 0-.787.222-.187.667-.187.933 0zm3.113 4.008c.369 0 .667-.252.667-.562s-.298-.562-.667-.562-.666.252-.666.562.298.562.666.562z" class="B"/><use xlink:href="#P" class="B"/><path d="M537.082 6.822c.368 0 .666-.252.666-.562s-.298-.562-.666-.562-.667.252-.667.562.299.562.667.562zm3.602 3.072c.368 0 .666-.252.666-.562s-.298-.562-.666-.562-.667.252-.667.562.299.562.667.562zm4.09 2.06c.267.225.267.562 0 .787a.73.73 0 0 1-.933 0c-.266-.225-.266-.562 0-.787a.73.73 0 0 1 .933 0z" class="B"/></g><g class="B D"><use xlink:href="#Q" class="B"/><path d="M1031.65 80.839a.58.58 0 0 1 0 .955c-.32.273-.8.273-1.13 0a.59.59 0 0 1 0-.955c.33-.273.81-.273 1.13 0zm-12.19-4.501a.59.59 0 0 1 0 .955c-.32.273-.81.273-1.13 0a.58.58 0 0 1 0-.955c.32-.273.81-.273 1.13 0zm4.37 3.683a.59.59 0 0 1 0 .955c-.32.273-.81.273-1.13 0a.58.58 0 0 1 0-.955c.32-.227.81-.227 1.13 0zm4.37 3.728a.59.59 0 0 1 0 .955c-.32.273-.81.273-1.13 0a.58.58 0 0 1 0-.955c.32-.273.86-.273 1.13 0zm-2.27-12.184c.45 0 .81-.305.81-.682s-.36-.682-.81-.682c-.44 0-.8.305-.8.682s.36.682.8.682z" class="B"/><use xlink:href="#R" class="B"/><use xlink:href="#S" class="B"/></g><g class="B D"><path d="M712.645 168.312c.266.224.266.562 0 .786a.73.73 0 0 1-.934 0c-.266-.224-.266-.562 0-.786s.711-.225.934 0zm6.759 7.08c.368 0 .666-.252.666-.562s-.298-.562-.666-.562-.667.252-.667.562.299.562.667.562zm-10.05-3.71c.368 0 .667-.251.667-.561s-.299-.562-.667-.562-.666.251-.666.562.298.561.666.561zm4.091 2.061c.267.225.267.562 0 .786a.73.73 0 0 1-.933 0c-.267-.224-.267-.561 0-.786a.73.73 0 0 1 .933 0zm42.461 4.949c.266.225.266.562 0 .787a.73.73 0 0 1-.933 0c-.267-.225-.267-.562 0-.787s.711-.225.933 0zm-40.238-12.891c.267.225.267.562 0 .787a.73.73 0 0 1-.933 0c-.266-.225-.266-.562 0-.787.222-.224.667-.224.933 0zm3.602 3.035c.267.225.267.562 0 .787a.73.73 0 0 1-.933 0c-.267-.225-.267-.562 0-.787.267-.187.666-.187.933 0zm3.158 4.008c.368 0 .666-.252.666-.562s-.298-.562-.666-.562-.667.252-.667.562.299.562.667.562z" class="B"/></g><g class="B D"><path d="M366.466 152.99c.3.252.3.631 0 .883a.82.82 0 0 1-1.048 0c-.299-.252-.299-.631 0-.883.25-.252.749-.252 1.048 0zm8.084 6.811c.3.252.3.631 0 .883a.82.82 0 0 1-1.047 0c-.3-.252-.3-.631 0-.883a.82.82 0 0 1 1.047 0zm-11.277-4.162c.299.252.299.63 0 .883a.82.82 0 0 1-1.048 0c-.3-.253-.3-.631 0-.883a.82.82 0 0 1 1.048 0zm4.042 3.447c.299.252.299.63 0 .882a.82.82 0 0 1-1.048 0 .54.54 0 0 1 0-.882.82.82 0 0 1 1.048 0zm4.092 3.405c.299.252.299.631 0 .883a.82.82 0 0 1-1.048 0c-.3-.252-.3-.631 0-.883a.82.82 0 0 1 1.048 0zm-1.597-12.359c.299.252.299.63 0 .883a.82.82 0 0 1-1.048 0c-.3-.253-.3-.631 0-.883.249-.21.748-.21 1.048 0zm3.493 4.498c.413 0 .749-.282.749-.631s-.336-.63-.749-.63-.749.282-.749.63.336.631.749.631zm4.092 3.447c.413 0 .748-.283.748-.631s-.335-.631-.748-.631-.749.283-.749.631.335.631.749.631z" class="B"/></g><g class="B D"><path d="M398.903 117.93c.413 0 .748-.282.748-.63s-.335-.631-.748-.631-.749.282-.749.631.335.63.749.63zm8.633 5.76c.299.252.299.63 0 .882a.82.82 0 0 1-1.048 0 .54.54 0 0 1 0-.882.82.82 0 0 1 1.048 0zm-11.827-3.111c.413 0 .749-.283.749-.631s-.336-.631-.749-.631-.749.283-.749.631.336.631.749.631zm4.042 3.447c.414 0 .749-.282.749-.63s-.335-.631-.749-.631-.748.282-.748.631.335.63.748.63zm4.591 2.312c.299.252.299.631 0 .883a.82.82 0 0 1-1.048 0c-.299-.252-.299-.631 0-.883a.82.82 0 0 1 1.048 0zm-1.597-12.318c.3.252.3.631 0 .883a.82.82 0 0 1-1.048 0c-.299-.252-.299-.631 0-.883s.799-.252 1.048 0zm4.092 3.406a.54.54 0 0 1 0 .882.82.82 0 0 1-1.048 0c-.299-.252-.299-.63 0-.882.25-.253.749-.253 1.048 0zm4.042 3.447c.3.252.3.63 0 .883a.82.82 0 0 1-1.048 0c-.299-.253-.299-.631 0-.883a.82.82 0 0 1 1.048 0z" class="B"/></g><g class="B D"><path d="M637.095 130.851c.266.224.266.562 0 .786a.73.73 0 0 1-.934 0c-.266-.224-.266-.562 0-.786a.73.73 0 0 1 .934 0zm7.248 6.068c.266.225.266.562 0 .787a.73.73 0 0 1-.934 0c-.266-.225-.266-.562 0-.787.223-.225.667-.225.934 0z" class="B"/><use xlink:href="#T" class="B"/><path d="M637.895 136.245c.267.225.267.562 0 .787a.73.73 0 0 1-.933 0c-.267-.225-.267-.562 0-.787.266-.187.666-.187.933 0zm3.157 4.008c.368 0 .667-.251.667-.562s-.299-.562-.667-.562-.666.252-.666.562.298.562.666.562zm-.978-11.95c.266.225.266.562 0 .787a.73.73 0 0 1-.933 0c-.267-.225-.267-.562 0-.787s.711-.224.933 0zm3.646 3.072c.267.225.267.562 0 .787a.73.73 0 0 1-.933 0c-.267-.225-.267-.562 0-.787.222-.225.666-.225.933 0zm3.113 4.009c.368 0 .667-.252.667-.562s-.299-.562-.667-.562-.666.251-.666.562.298.562.666.562z" class="B"/></g><g class="B D"><use xlink:href="#U" class="B"/><use xlink:href="#V" class="B"/><path d="M635.894 42.705c.368 0 .667-.252.667-.562s-.299-.562-.667-.562-.666.252-.666.562.298.562.666.562zm-10.227 3.372c.368 0 .666-.252.666-.562s-.298-.562-.666-.562-.667.252-.667.562.298.562.667.562zm5.113 0c.368 0 .667-.252.667-.562s-.299-.562-.667-.562-.666.252-.666.562.298.562.666.562zm5.114 0c.368 0 .667-.252.667-.562s-.299-.562-.667-.562-.666.252-.666.562.298.562.666.562zm-10.227-10.302c.368 0 .666-.252.666-.562s-.298-.562-.666-.562-.667.252-.667.562.298.562.667.562zm5.113 0c.368 0 .667-.252.667-.562s-.299-.562-.667-.562-.666.252-.666.562.298.562.666.562zm5.114 0c.368 0 .667-.252.667-.562s-.299-.562-.667-.562-.666.252-.666.562.298.562.666.562zm-10.227 3.372c.368 0 .666-.252.666-.562s-.298-.562-.666-.562-.667.252-.667.562.298.562.667.562zm5.113 0c.368 0 .667-.252.667-.562s-.299-.562-.667-.562-.666.252-.666.562.298.562.666.562zm5.114 0c.368 0 .667-.252.667-.562s-.299-.562-.667-.562-.666.252-.666.562.298.562.666.562zm-10.227-10.302c.368 0 .666-.252.666-.562s-.298-.562-.666-.562-.667.252-.667.562.298.562.667.562zm5.113 0c.368 0 .667-.252.667-.562s-.299-.562-.667-.562-.666.252-.666.562.298.562.666.562zm5.114 0c.368 0 .667-.252.667-.562s-.299-.562-.667-.562-.666.252-.666.562.298.562.666.562zm-10.227 3.372c.368 0 .666-.252.666-.562s-.298-.562-.666-.562-.667.252-.667.562.298.562.667.562zm5.113 0c.368 0 .667-.252.667-.562s-.299-.562-.667-.562-.666.252-.666.562.298.562.666.562zm5.114 0c.368 0 .667-.252.667-.562s-.299-.562-.667-.562-.666.252-.666.562.298.562.666.562zm-10.227-10.303c.368 0 .666-.252.666-.562s-.298-.562-.666-.562-.667.252-.667.562.298.562.667.562zm5.113 0c.368 0 .667-.252.667-.562s-.299-.562-.667-.562-.666.252-.666.562.298.562.666.562zm5.114 0c.368 0 .667-.252.667-.562s-.299-.562-.667-.562-.666.252-.666.562.298.562.666.562zm-10.227 3.372c.368 0 .666-.252.666-.562s-.298-.562-.666-.562-.667.252-.667.562.298.562.667.562zm5.113 0c.368 0 .667-.252.667-.562s-.299-.562-.667-.562-.666.252-.666.562.298.562.666.562zm5.114 0c.368 0 .667-.252.667-.562s-.299-.562-.667-.562-.666.252-.666.562.298.562.666.562zm-10.227-10.302c.368 0 .666-.252.666-.562s-.298-.562-.666-.562-.667.252-.667.562.298.562.667.562zm5.113 0c.368 0 .667-.252.667-.562s-.299-.562-.667-.562-.666.252-.666.562.298.562.666.562zm5.114 0c.368 0 .667-.252.667-.562s-.299-.562-.667-.562-.666.252-.666.562.298.562.666.562zm-10.227 3.372c.368 0 .666-.252.666-.562s-.298-.562-.666-.562-.667.252-.667.562.298.562.667.562zm5.113 0c.368 0 .667-.252.667-.562s-.299-.562-.667-.562-.666.252-.666.562.298.562.666.562zm5.114 0c.368 0 .667-.252.667-.562s-.299-.562-.667-.562-.666.252-.666.562.298.562.666.562zM625.667 8.054c.368 0 .666-.252.666-.562s-.298-.562-.666-.562-.667.252-.667.562.298.562.667.562zm5.113 0c.368 0 .667-.252.667-.562s-.299-.562-.667-.562-.666.252-.666.562.298.562.666.562zm5.114 0c.368 0 .667-.252.667-.562s-.299-.562-.667-.562-.666.252-.666.562.298.562.666.562zm-10.227 3.372c.368 0 .666-.252.666-.562s-.298-.562-.666-.562-.667.252-.667.562.298.562.667.562zm5.113 0c.368 0 .667-.252.667-.562s-.299-.562-.667-.562-.666.252-.666.562.298.562.666.562zm5.114 0c.368 0 .667-.252.667-.562s-.299-.562-.667-.562-.666.252-.666.562.298.562.666.562zM625.667 1.124c.368 0 .666-.252.666-.562S626.035 0 625.667 0 625 .252 625 .562s.298.562.667.562zm5.113 0c.368 0 .667-.252.667-.562S631.148 0 630.78 0s-.666.252-.666.562.298.562.666.562zm5.114 0c.368 0 .667-.252.667-.562S636.262 0 635.894 0s-.666.252-.666.562.298.562.666.562zm-10.227 3.371c.368 0 .666-.252.666-.562s-.298-.562-.666-.562-.667.252-.667.562.298.562.667.562zm5.113 0c.368 0 .667-.252.667-.562s-.299-.562-.667-.562-.666.252-.666.562.298.562.666.562zm5.114 0c.368 0 .667-.252.667-.562s-.299-.562-.667-.562-.666.252-.666.562.298.562.666.562z" class="B"/></g><g class="B D"><path d="M998.523 94.613c.447 0 .809-.305.809-.682s-.362-.682-.809-.682-.81.305-.81.682.363.682.81.682zm-.001 5.228c.447 0 .81-.305.81-.682s-.363-.682-.81-.682-.809.305-.809.682.362.682.809.682zm0 5.228c.447 0 .81-.305.81-.682s-.363-.681-.81-.681-.809.305-.809.681.362.682.809.682zm-4.856-10.456c.447 0 .81-.305.81-.682s-.363-.682-.81-.682-.809.305-.809.682.362.682.809.682zm0 5.228c.447 0 .809-.305.809-.682s-.362-.682-.809-.682-.81.305-.81.682.363.682.81.682zm0 5.228c.447 0 .809-.305.809-.682s-.362-.681-.809-.681-.81.305-.81.681.363.682.81.682z" class="B"/><use xlink:href="#W" class="B"/><path d="M1008.51 99.841c.44 0 .8-.305.8-.682s-.36-.682-.8-.682c-.45 0-.81.305-.81.682s.36.682.81.682zm0 5.228c.44 0 .8-.305.8-.682s-.36-.681-.8-.681c-.45 0-.81.305-.81.681s.36.682.81.682zm-4.86-10.456c.45 0 .81-.305.81-.682s-.36-.682-.81-.682-.81.305-.81.682.36.682.81.682zm0 5.228c.45 0 .81-.305.81-.682s-.36-.682-.81-.682-.81.305-.81.682.36.682.81.682z" class="B"/><use xlink:href="#X" class="B"/><path d="M1018.49 94.613c.45 0 .81-.305.81-.682s-.36-.682-.81-.682-.81.305-.81.682.36.682.81.682zm0 5.228c.45 0 .81-.305.81-.682s-.36-.682-.81-.682-.81.305-.81.682.36.682.81.682zm0 5.228c.45 0 .81-.305.81-.682s-.36-.681-.81-.681-.81.305-.81.681.36.682.81.682zm-4.86-10.456c.45 0 .81-.305.81-.682s-.36-.682-.81-.682-.81.305-.81.682.36.682.81.682z" class="B"/><use xlink:href="#Y" class="B"/><use xlink:href="#Z" class="B"/><path d="M1028.47 94.613c.45 0 .81-.305.81-.682s-.36-.682-.81-.682-.81.305-.81.682.36.682.81.682zm0 5.228c.45 0 .81-.305.81-.682s-.36-.682-.81-.682-.81.305-.81.682.36.682.81.682zm0 5.228c.45 0 .81-.305.81-.682s-.36-.681-.81-.681-.81.305-.81.681.36.682.81.682zm-4.86-10.456c.45 0 .81-.305.81-.682s-.36-.682-.81-.682c-.44 0-.81.305-.81.682s.37.682.81.682zm0 5.228c.45 0 .81-.305.81-.682s-.36-.682-.81-.682c-.44 0-.81.305-.81.682s.37.682.81.682zm0 5.228c.45 0 .81-.305.81-.682s-.36-.681-.81-.681c-.44 0-.81.305-.81.681s.37.682.81.682zm14.84-10.456c.45 0 .81-.305.81-.682s-.36-.682-.81-.682c-.44 0-.81.305-.81.682s.37.682.81.682zm0 5.228c.45 0 .81-.305.81-.682s-.36-.682-.81-.682c-.44 0-.81.305-.81.682s.37.682.81.682zm0 5.228c.45 0 .81-.305.81-.682s-.36-.681-.81-.681c-.44 0-.81.305-.81.681s.37.682.81.682zm-4.85-10.456c.44 0 .81-.305.81-.682s-.37-.682-.81-.682c-.45 0-.81.305-.81.682s.36.682.81.682zm0 5.228c.44 0 .81-.305.81-.682s-.37-.682-.81-.682c-.45 0-.81.305-.81.682s.36.682.81.682z" class="B"/><use xlink:href="#a" class="B"/><path d="M1048.44 94.613c.44 0 .81-.305.81-.682s-.37-.682-.81-.682c-.45 0-.81.305-.81.682s.36.682.81.682zm0 5.228c.44 0 .81-.305.81-.682s-.37-.682-.81-.682c-.45 0-.81.305-.81.682s.36.682.81.682zm0 5.228c.44 0 .81-.305.81-.682s-.37-.681-.81-.681c-.45 0-.81.305-.81.681s.36.682.81.682zm-4.86-10.456c.45 0 .81-.305.81-.682s-.36-.682-.81-.682-.81.305-.81.682.36.682.81.682zm0 5.228c.45 0 .81-.305.81-.682s-.36-.682-.81-.682-.81.305-.81.682.36.682.81.682zm0 5.228c.45 0 .81-.305.81-.682s-.36-.681-.81-.681-.81.305-.81.681.36.682.81.682zm14.84-10.456c.45 0 .81-.305.81-.682s-.36-.682-.81-.682-.81.305-.81.682.36.682.81.682zm0 5.228c.45 0 .81-.305.81-.682s-.36-.682-.81-.682-.81.305-.81.682.36.682.81.682zm0 5.228c.45 0 .81-.305.81-.682s-.36-.681-.81-.681-.81.305-.81.681.36.682.81.682zm-4.86-10.456c.45 0 .81-.305.81-.682s-.36-.682-.81-.682c-.44 0-.81.305-.81.682s.37.682.81.682zm0 5.228c.45 0 .81-.305.81-.682s-.36-.682-.81-.682c-.44 0-.81.305-.81.682s.37.682.81.682zm0 5.228c.45 0 .81-.305.81-.682s-.36-.681-.81-.681c-.44 0-.81.305-.81.681s.37.682.81.682z" class="B"/></g><g opacity=".41" stroke-width="1.803" class="E F"><path d="M718.988 59.109L678 93.663l40.988 34.553 40.988-34.553-40.988-34.554z" class="C"/><path d="M719.049 74.131l-23.185 19.531 23.185 19.531 23.184-19.531-23.184-19.531z" class="C"/></g></g><defs><linearGradient id="A" x1="118.583" y1="170.8" x2="1488.94" y2="-269.151" xlink:href="#b"><stop stop-color="#0fcd6c"/><stop offset="1" stop-color="#2fa468"/></linearGradient><linearGradient id="B" x1="356.66" y1="-38.147" x2="155.831" y2="215.118" xlink:href="#b"><stop stop-color="#335342"/><stop offset="1" stop-color="#4c6156"/></linearGradient><linearGradient id="C" x1="-50.771" y1="31.287" x2="80.459" y2="227.452" xlink:href="#b"><stop stop-color="#70936c"/><stop offset="1" stop-color="#476343"/></linearGradient><linearGradient id="D" x1="-33.019" y1="-36.255" x2="5.978" y2="115.981" xlink:href="#b"><stop stop-color="#50724b"/><stop offset="1" stop-color="#7eb367"/></linearGradient><linearGradient id="E" x1="1074.34" y1="-36.147" x2="1275.17" y2="217.118" xlink:href="#b"><stop stop-color="#335342"/><stop offset="1" stop-color="#4c6156"/></linearGradient><linearGradient id="F" x1="1481.77" y1="33.287" x2="1350.54" y2="229.452" xlink:href="#b"><stop stop-color="#70936c"/><stop offset="1" stop-color="#476343"/></linearGradient><linearGradient id="G" x1="1464.02" y1="-34.255" x2="1425.02" y2="117.981" xlink:href="#b"><stop stop-color="#50724b"/><stop offset="1" stop-color="#7eb367"/></linearGradient><clipPath id="H"><path d="M0 0h1440v183H0z" class="D"/></clipPath><path id="I" d="M428.994 154.882c.413 0 .748-.282.748-.63s-.335-.631-.748-.631-.749.282-.749.631.335.63.749.63z"/><path id="J" d="M428.994 159.717c.413 0 .748-.283.748-.631s-.335-.63-.748-.63-.749.282-.749.63.335.631.749.631z"/><path id="K" d="M442.966 154.882c.414 0 .749-.282.749-.63s-.335-.631-.749-.631-.748.282-.748.631.335.63.748.63z"/><path id="L" d="M442.966 159.717c.414 0 .749-.283.749-.631s-.335-.63-.749-.63-.748.282-.748.63.335.631.748.631z"/><path id="M" d="M923.3 79.202c.447 0 .809-.305.809-.682s-.362-.682-.809-.682-.81.305-.81.682.363.682.81.682z"/><path id="N" d="M911.104 74.701c.447 0 .81-.305.81-.682s-.363-.682-.81-.682-.809.305-.809.682.362.682.809.682z"/><path id="O" d="M470.862 14.345c.299.252.299.631 0 .883a.82.82 0 0 1-1.048 0c-.3-.252-.3-.631 0-.883a.82.82 0 0 1 1.048 0z"/><path id="P" d="M538.505 17.835c.368 0 .666-.252.666-.562s-.298-.562-.666-.562-.667.252-.667.562.299.562.667.562z"/><path id="Q" d="M1022.86 73.475a.59.59 0 0 1 0 .955c-.32.273-.81.273-1.13 0a.58.58 0 0 1 0-.955c.32-.273.86-.273 1.13 0z"/><path id="R" d="M1030.31 75.248c.44 0 .81-.305.81-.682s-.37-.682-.81-.682c-.45 0-.81.305-.81.682s.36.682.81.682z"/><path id="S" d="M1034.73 78.975c.45 0 .81-.305.81-.682s-.36-.682-.81-.682-.81.305-.81.682.36.682.81.682z"/><path id="T" d="M634.293 133.211c.267.225.267.562 0 .787a.73.73 0 0 1-.933 0c-.267-.225-.267-.562 0-.787.222-.225.666-.225.933 0z"/><path id="U" d="M625.667 42.705c.368 0 .666-.252.666-.562s-.298-.562-.666-.562-.667.252-.667.562.298.562.667.562z"/><path id="V" d="M630.78 42.705c.368 0 .667-.252.667-.562s-.299-.562-.667-.562-.666.252-.666.562.298.562.666.562z"/><path id="W" d="M1008.51 94.613c.44 0 .8-.305.8-.682s-.36-.682-.8-.682c-.45 0-.81.305-.81.682s.36.682.81.682z"/><path id="X" d="M1003.65 105.069c.45 0 .81-.305.81-.682s-.36-.681-.81-.681-.81.305-.81.681.36.682.81.682z"/><path id="Y" d="M1013.63 99.841c.45 0 .81-.305.81-.682s-.36-.682-.81-.682c-.44 0-.81.305-.81.682s.37.682.81.682z"/><path id="Z" d="M1013.63 105.069c.45 0 .81-.305.81-.682s-.36-.681-.81-.681c-.44 0-.81.305-.81.681s.37.682.81.682z"/><path id="a" d="M1033.6 105.069c.44 0 .81-.305.81-.682s-.37-.681-.81-.681c-.45 0-.81.305-.81.681s.36.682.81.682z"/><linearGradient id="b" gradientUnits="userSpaceOnUse"/></defs></svg>